<svg viewBox="0 0 100 100" xmlns="http://www.w3.org/2000/svg" fill="#d9a521">
  <path d="M 48,18 L 52,18 L 52,24 L 50,27 L 48,24 Z 
           M 15,24 L 46,24 L 46,30 L 25,38 Z 
           M 85,24 L 54,24 L 54,30 L 75,38 Z 
           M 50,26 L 58,34 L 50,44 L 42,34 Z 
           M 38,38 L 26,48 L 32,49 L 41,43 Z 
           M 62,38 L 74,48 L 68,49 L 59,43 Z 
           M 43,44 L 35,55 L 40,56 L 46,49 Z 
           M 57,44 L 65,55 L 60,56 L 54,49 Z 
           M 43,50 L 43,75 L 48,70 L 48,45 Z 
           M 57,50 L 57,75 L 52,70 L 52,45 Z" />
</svg>
