<svg viewBox="0 0 1024 763" xmlns="http://www.w3.org/2000/svg" fill="#eab308">
  <path fill-rule="evenodd" d="M 584.0,259.0 L 582.0,260.0 L 581.0,270.0 L 577.0,284.0 L 571.0,297.0 L 567.0,303.0 L 554.0,316.0 L 548.0,320.0 L 536.0,325.0 L 535.0,752.0 L 537.0,752.0 L 546.0,736.0 L 546.0,734.0 L 554.0,721.0 L 576.0,679.0 L 577.0,402.0 L 583.0,409.0 L 632.0,479.0 L 637.0,485.0 L 639.0,485.0 L 611.0,397.0 L 608.0,391.0 L 589.0,333.0 L 590.0,327.0 L 696.0,403.0 L 698.0,403.0 L 698.0,401.0 Z M 445.0,259.0 L 440.0,264.0 L 332.0,399.0 L 331.0,403.0 L 333.0,403.0 L 433.0,331.0 L 440.0,330.0 L 390.0,482.0 L 390.0,485.0 L 393.0,484.0 L 450.0,403.0 L 453.0,403.0 L 453.0,680.0 L 473.0,716.0 L 473.0,718.0 L 481.0,731.0 L 487.0,744.0 L 489.0,746.0 L 491.0,751.0 L 494.0,752.0 L 493.0,325.0 L 484.0,322.0 L 476.0,317.0 L 461.0,302.0 L 452.0,285.0 L 448.0,272.0 L 447.0,262.0 Z M 533.0,164.0 L 693.0,335.0 L 714.0,335.0 L 832.0,277.0 L 832.0,256.0 L 575.0,155.0 L 575.0,134.0 L 692.0,160.0 L 696.0,162.0 L 709.0,164.0 L 878.0,204.0 L 906.0,205.0 L 1013.0,94.0 L 1014.0,90.0 L 1004.0,66.0 L 565.0,63.0 L 601.0,7.0 L 598.0,6.0 L 533.0,59.0 Z M 496.0,163.0 L 496.0,60.0 L 429.0,5.0 L 428.0,8.0 L 461.0,58.0 L 463.0,65.0 L 25.0,65.0 L 15.0,90.0 L 15.0,93.0 L 123.0,205.0 L 151.0,204.0 L 450.0,134.0 L 454.0,135.0 L 454.0,154.0 L 452.0,156.0 L 196.0,256.0 L 196.0,276.0 L 198.0,278.0 L 315.0,335.0 L 336.0,335.0 Z" />
</svg>
