<svg xmlns="http://www.w3.org/2000/svg" viewBox="0 0 980 1130" width="100%" height="100%" fill="currentColor">
    <path fill-rule="evenodd" d="M 568.0,1011.0 L 566.0,1004.0 L 564.0,1002.0 L 564.0,1001.0 L 563.0,1000.0 L 562.0,1000.0 L 560.0,998.0 L 557.0,997.0 L 552.0,997.0 L 549.0,998.0 L 533.0,1007.0 L 528.0,1011.0 L 528.0,1012.0 L 526.0,1014.0 L 525.0,1017.0 L 525.0,1036.0 L 524.0,1040.0 L 523.0,1042.0 L 521.0,1044.0 L 518.0,1046.0 L 509.0,1050.0 L 506.0,1052.0 L 503.0,1055.0 L 498.0,1058.0 L 491.0,1060.0 L 488.0,1060.0 L 467.0,1056.0 L 463.0,1054.0 L 459.0,1050.0 L 457.0,1046.0 L 457.0,1030.0 L 456.0,1025.0 L 454.0,1021.0 L 451.0,1018.0 L 446.0,1016.0 L 440.0,1015.0 L 428.0,1015.0 L 422.0,1013.0 L 417.0,1010.0 L 414.0,1009.0 L 405.0,1009.0 L 403.0,1010.0 L 401.0,1012.0 L 399.0,1016.0 L 399.0,1026.0 L 401.0,1032.0 L 406.0,1040.0 L 416.0,1050.0 L 440.0,1066.0 L 459.0,1078.0 L 465.0,1081.0 L 471.0,1083.0 L 478.0,1084.0 L 484.0,1084.0 L 491.0,1083.0 L 502.0,1080.0 L 509.0,1077.0 L 516.0,1076.0 L 522.0,1074.0 L 530.0,1069.0 L 551.0,1049.0 L 560.0,1040.0 L 564.0,1035.0 L 567.0,1029.0 L 568.0,1025.0 Z M 423.0,938.0 L 421.0,939.0 L 418.0,942.0 L 417.0,944.0 L 415.0,950.0 L 413.0,958.0 L 412.0,963.0 L 412.0,965.0 L 413.0,970.0 L 415.0,974.0 L 419.0,978.0 L 423.0,980.0 L 431.0,980.0 L 433.0,979.0 L 437.0,975.0 L 438.0,973.0 L 438.0,964.0 L 436.0,959.0 L 436.0,945.0 L 435.0,943.0 L 433.0,941.0 L 430.0,939.0 L 427.0,938.0 Z M 548.0,937.0 L 546.0,938.0 L 545.0,939.0 L 544.0,941.0 L 543.0,944.0 L 542.0,950.0 L 542.0,961.0 L 543.0,965.0 L 545.0,969.0 L 547.0,971.0 L 549.0,972.0 L 553.0,972.0 L 555.0,971.0 L 558.0,968.0 L 560.0,965.0 L 561.0,962.0 L 562.0,958.0 L 562.0,947.0 L 561.0,944.0 L 560.0,942.0 L 556.0,938.0 L 554.0,937.0 Z M 394.0,788.0 L 390.0,789.0 L 387.0,790.0 L 384.0,792.0 L 382.0,795.0 L 381.0,797.0 L 381.0,802.0 L 386.0,815.0 L 386.0,825.0 L 384.0,831.0 L 384.0,835.0 L 385.0,838.0 L 388.0,844.0 L 392.0,849.0 L 394.0,853.0 L 395.0,856.0 L 396.0,862.0 L 396.0,871.0 L 398.0,875.0 L 400.0,877.0 L 404.0,879.0 L 407.0,880.0 L 412.0,880.0 L 416.0,878.0 L 421.0,873.0 L 422.0,870.0 L 422.0,859.0 L 421.0,855.0 L 418.0,848.0 L 417.0,844.0 L 418.0,821.0 L 418.0,805.0 L 417.0,801.0 L 416.0,798.0 L 415.0,796.0 L 410.0,791.0 L 408.0,790.0 L 405.0,789.0 L 401.0,788.0 Z M 582.0,777.0 L 575.0,775.0 L 568.0,775.0 L 563.0,777.0 L 559.0,781.0 L 559.0,789.0 L 560.0,794.0 L 561.0,795.0 L 561.0,798.0 L 559.0,803.0 L 555.0,807.0 L 553.0,808.0 L 548.0,808.0 L 541.0,803.0 L 535.0,800.0 L 530.0,800.0 L 519.0,804.0 L 514.0,807.0 L 506.0,815.0 L 502.0,821.0 L 500.0,826.0 L 495.0,831.0 L 491.0,831.0 L 487.0,827.0 L 485.0,823.0 L 480.0,818.0 L 477.0,816.0 L 474.0,815.0 L 468.0,815.0 L 461.0,818.0 L 455.0,823.0 L 455.0,824.0 L 449.0,831.0 L 444.0,840.0 L 441.0,849.0 L 436.0,858.0 L 433.0,867.0 L 433.0,874.0 L 442.0,907.0 L 444.0,921.0 L 447.0,929.0 L 447.0,934.0 L 448.0,935.0 L 448.0,939.0 L 447.0,940.0 L 447.0,944.0 L 448.0,948.0 L 455.0,968.0 L 463.0,983.0 L 472.0,997.0 L 479.0,1004.0 L 482.0,1006.0 L 490.0,1008.0 L 498.0,1006.0 L 509.0,1000.0 L 517.0,992.0 L 519.0,989.0 L 524.0,978.0 L 526.0,965.0 L 526.0,955.0 L 528.0,947.0 L 534.0,936.0 L 536.0,930.0 L 538.0,919.0 L 548.0,892.0 L 549.0,882.0 L 551.0,875.0 L 553.0,872.0 L 556.0,869.0 L 558.0,868.0 L 576.0,869.0 L 578.0,868.0 L 581.0,865.0 L 583.0,861.0 L 585.0,852.0 L 584.0,830.0 L 587.0,818.0 L 594.0,802.0 L 595.0,798.0 L 595.0,789.0 L 594.0,786.0 L 588.0,780.0 Z M 510.0,661.0 L 508.0,658.0 L 504.0,654.0 L 500.0,652.0 L 497.0,651.0 L 489.0,651.0 L 481.0,655.0 L 479.0,657.0 L 473.0,660.0 L 469.0,661.0 L 462.0,661.0 L 461.0,660.0 L 452.0,659.0 L 442.0,659.0 L 424.0,660.0 L 416.0,662.0 L 406.0,663.0 L 390.0,663.0 L 384.0,662.0 L 379.0,660.0 L 368.0,660.0 L 353.0,661.0 L 347.0,662.0 L 342.0,664.0 L 336.0,670.0 L 334.0,673.0 L 333.0,676.0 L 333.0,696.0 L 334.0,705.0 L 336.0,715.0 L 344.0,732.0 L 350.0,738.0 L 355.0,740.0 L 357.0,740.0 L 360.0,739.0 L 362.0,737.0 L 364.0,732.0 L 364.0,722.0 L 368.0,704.0 L 370.0,700.0 L 372.0,698.0 L 376.0,696.0 L 415.0,697.0 L 423.0,699.0 L 426.0,699.0 L 443.0,696.0 L 448.0,694.0 L 455.0,690.0 L 458.0,689.0 L 464.0,689.0 L 466.0,690.0 L 471.0,695.0 L 474.0,700.0 L 479.0,712.0 L 482.0,722.0 L 485.0,729.0 L 487.0,732.0 L 491.0,736.0 L 493.0,737.0 L 497.0,737.0 L 500.0,736.0 L 506.0,730.0 L 511.0,720.0 L 512.0,716.0 L 513.0,709.0 L 514.0,689.0 L 514.0,679.0 L 512.0,666.0 Z M 141.0,72.0 L 132.0,84.0 L 130.0,116.0 L 136.0,166.0 L 154.0,200.0 L 144.0,223.0 L 152.0,273.0 L 166.0,314.0 L 200.0,331.0 L 217.0,343.0 L 220.0,350.0 L 207.0,374.0 L 169.0,405.0 L 154.0,440.0 L 142.0,454.0 L 126.0,488.0 L 125.0,515.0 L 132.0,533.0 L 109.0,556.0 L 117.0,583.0 L 117.0,608.0 L 126.0,622.0 L 149.0,638.0 L 148.0,667.0 L 176.0,702.0 L 192.0,709.0 L 239.0,707.0 L 250.0,729.0 L 266.0,734.0 L 279.0,724.0 L 305.0,678.0 L 310.0,660.0 L 309.0,631.0 L 322.0,626.0 L 330.0,611.0 L 301.0,559.0 L 308.0,531.0 L 318.0,522.0 L 368.0,527.0 L 397.0,519.0 L 401.0,514.0 L 400.0,505.0 L 387.0,493.0 L 397.0,483.0 L 406.0,483.0 L 420.0,504.0 L 425.0,520.0 L 438.0,538.0 L 438.0,554.0 L 434.0,566.0 L 425.0,575.0 L 367.0,603.0 L 363.0,614.0 L 370.0,624.0 L 379.0,628.0 L 408.0,628.0 L 460.0,621.0 L 485.0,622.0 L 515.0,612.0 L 539.0,592.0 L 562.0,595.0 L 605.0,729.0 L 618.0,787.0 L 607.0,852.0 L 596.0,888.0 L 595.0,931.0 L 580.0,982.0 L 579.0,1032.0 L 584.0,1039.0 L 595.0,1040.0 L 607.0,1030.0 L 617.0,1010.0 L 626.0,949.0 L 645.0,872.0 L 656.0,848.0 L 684.0,812.0 L 683.0,798.0 L 676.0,790.0 L 651.0,793.0 L 647.0,789.0 L 650.0,707.0 L 639.0,679.0 L 638.0,666.0 L 641.0,664.0 L 646.0,669.0 L 653.0,695.0 L 680.0,728.0 L 688.0,732.0 L 705.0,728.0 L 731.0,730.0 L 741.0,724.0 L 757.0,703.0 L 779.0,695.0 L 805.0,692.0 L 843.0,665.0 L 879.0,662.0 L 901.0,652.0 L 933.0,607.0 L 938.0,594.0 L 934.0,578.0 L 921.0,563.0 L 930.0,542.0 L 926.0,499.0 L 912.0,483.0 L 899.0,450.0 L 913.0,426.0 L 907.0,396.0 L 889.0,378.0 L 883.0,356.0 L 870.0,339.0 L 849.0,333.0 L 808.0,331.0 L 802.0,327.0 L 814.0,310.0 L 831.0,300.0 L 843.0,287.0 L 852.0,271.0 L 855.0,255.0 L 856.0,211.0 L 838.0,191.0 L 847.0,167.0 L 847.0,155.0 L 842.0,140.0 L 840.0,83.0 L 832.0,35.0 L 821.0,25.0 L 810.0,26.0 L 796.0,34.0 L 761.0,65.0 L 730.0,111.0 L 699.0,121.0 L 665.0,142.0 L 653.0,167.0 L 646.0,173.0 L 615.0,153.0 L 584.0,159.0 L 531.0,148.0 L 468.0,147.0 L 423.0,156.0 L 403.0,165.0 L 390.0,165.0 L 371.0,157.0 L 327.0,189.0 L 268.0,154.0 L 233.0,141.0 L 170.0,80.0 L 155.0,72.0 Z M 253.0,535.0 L 258.0,536.0 L 259.0,538.0 L 259.0,541.0 L 258.0,550.0 L 259.0,554.0 L 265.0,564.0 L 266.0,566.0 L 268.0,572.0 L 269.0,580.0 L 270.0,584.0 L 272.0,589.0 L 274.0,592.0 L 289.0,607.0 L 291.0,610.0 L 294.0,616.0 L 297.0,619.0 L 299.0,622.0 L 300.0,625.0 L 298.0,627.0 L 292.0,625.0 L 284.0,621.0 L 279.0,618.0 L 275.0,615.0 L 269.0,609.0 L 265.0,604.0 L 263.0,601.0 L 261.0,597.0 L 256.0,586.0 L 254.0,580.0 L 252.0,571.0 L 252.0,551.0 L 251.0,544.0 L 250.0,543.0 L 250.0,538.0 Z M 565.0,497.0 L 567.0,497.0 L 569.0,498.0 L 571.0,500.0 L 572.0,502.0 L 572.0,504.0 L 573.0,506.0 L 575.0,509.0 L 579.0,513.0 L 581.0,516.0 L 582.0,518.0 L 583.0,521.0 L 582.0,527.0 L 580.0,531.0 L 579.0,536.0 L 579.0,544.0 L 581.0,550.0 L 581.0,561.0 L 579.0,569.0 L 577.0,573.0 L 574.0,576.0 L 569.0,576.0 L 566.0,575.0 L 563.0,573.0 L 559.0,572.0 L 551.0,571.0 L 548.0,570.0 L 545.0,566.0 L 546.0,564.0 L 548.0,562.0 L 554.0,558.0 L 556.0,556.0 L 558.0,553.0 L 560.0,549.0 L 562.0,543.0 L 563.0,538.0 L 563.0,530.0 L 562.0,525.0 L 559.0,518.0 L 558.0,514.0 L 558.0,506.0 L 559.0,503.0 L 560.0,501.0 L 563.0,498.0 Z M 425.0,418.0 L 428.0,421.0 L 430.0,424.0 L 433.0,430.0 L 434.0,433.0 L 434.0,441.0 L 432.0,445.0 L 430.0,448.0 L 424.0,454.0 L 423.0,456.0 L 423.0,465.0 L 422.0,467.0 L 417.0,472.0 L 415.0,473.0 L 410.0,472.0 L 409.0,470.0 L 409.0,467.0 L 410.0,463.0 L 412.0,458.0 L 412.0,455.0 L 410.0,451.0 L 407.0,447.0 L 405.0,442.0 L 406.0,440.0 L 408.0,438.0 L 411.0,436.0 L 412.0,436.0 L 415.0,434.0 L 417.0,432.0 L 419.0,429.0 L 421.0,425.0 L 422.0,420.0 Z M 374.0,444.0 L 375.0,446.0 L 375.0,449.0 L 373.0,456.0 L 369.0,465.0 L 365.0,469.0 L 361.0,471.0 L 357.0,472.0 L 353.0,472.0 L 347.0,474.0 L 343.0,476.0 L 337.0,480.0 L 331.0,483.0 L 326.0,484.0 L 318.0,488.0 L 315.0,490.0 L 306.0,500.0 L 301.0,505.0 L 298.0,507.0 L 287.0,512.0 L 279.0,518.0 L 276.0,519.0 L 273.0,518.0 L 273.0,515.0 L 278.0,510.0 L 287.0,502.0 L 289.0,499.0 L 290.0,496.0 L 290.0,488.0 L 288.0,484.0 L 283.0,479.0 L 278.0,476.0 L 273.0,471.0 L 271.0,468.0 L 268.0,462.0 L 267.0,459.0 L 265.0,450.0 L 265.0,435.0 L 266.0,428.0 L 268.0,422.0 L 271.0,416.0 L 275.0,412.0 L 279.0,410.0 L 283.0,409.0 L 302.0,409.0 L 305.0,408.0 L 309.0,405.0 L 311.0,404.0 L 316.0,404.0 L 318.0,405.0 L 332.0,419.0 L 341.0,430.0 L 341.0,431.0 L 344.0,434.0 L 348.0,437.0 L 354.0,440.0 L 358.0,441.0 L 368.0,441.0 L 371.0,442.0 L 373.0,443.0 Z M 534.0,398.0 L 528.0,410.0 L 523.0,415.0 L 519.0,416.0 L 513.0,416.0 L 508.0,415.0 L 506.0,414.0 L 503.0,410.0 L 507.0,406.0 L 513.0,403.0 L 523.0,399.0 L 532.0,396.0 Z M 244.0,373.0 L 246.0,375.0 L 246.0,378.0 L 240.0,390.0 L 234.0,398.0 L 231.0,405.0 L 231.0,441.0 L 229.0,448.0 L 228.0,450.0 L 201.0,476.0 L 199.0,479.0 L 197.0,484.0 L 196.0,489.0 L 196.0,494.0 L 197.0,500.0 L 201.0,507.0 L 212.0,517.0 L 213.0,519.0 L 213.0,523.0 L 202.0,533.0 L 198.0,540.0 L 198.0,556.0 L 197.0,558.0 L 195.0,560.0 L 192.0,562.0 L 189.0,563.0 L 183.0,563.0 L 179.0,561.0 L 174.0,556.0 L 172.0,552.0 L 171.0,548.0 L 171.0,513.0 L 169.0,506.0 L 169.0,503.0 L 170.0,502.0 L 170.0,498.0 L 172.0,493.0 L 175.0,488.0 L 178.0,478.0 L 178.0,473.0 L 179.0,468.0 L 182.0,461.0 L 187.0,456.0 L 189.0,455.0 L 197.0,453.0 L 205.0,449.0 L 211.0,443.0 L 213.0,440.0 L 214.0,437.0 L 214.0,429.0 L 213.0,426.0 L 210.0,421.0 L 208.0,414.0 L 208.0,407.0 L 209.0,403.0 L 211.0,398.0 L 214.0,392.0 L 216.0,389.0 L 223.0,382.0 L 226.0,380.0 L 238.0,374.0 L 241.0,373.0 Z M 430.0,369.0 L 432.0,370.0 L 436.0,374.0 L 437.0,376.0 L 438.0,379.0 L 438.0,381.0 L 435.0,387.0 L 427.0,398.0 L 426.0,401.0 L 423.0,403.0 L 421.0,401.0 L 421.0,383.0 L 422.0,379.0 L 423.0,376.0 L 425.0,372.0 L 427.0,370.0 Z M 504.0,434.0 L 510.0,429.0 L 519.0,427.0 L 535.0,419.0 L 544.0,417.0 L 557.0,417.0 L 569.0,414.0 L 578.0,409.0 L 592.0,395.0 L 610.0,384.0 L 614.0,383.0 L 644.0,384.0 L 650.0,381.0 L 665.0,369.0 L 675.0,366.0 L 693.0,367.0 L 712.0,360.0 L 721.0,359.0 L 727.0,363.0 L 733.0,381.0 L 741.0,389.0 L 762.0,397.0 L 774.0,403.0 L 794.0,416.0 L 802.0,419.0 L 812.0,421.0 L 824.0,427.0 L 830.0,431.0 L 838.0,439.0 L 839.0,446.0 L 829.0,459.0 L 826.0,465.0 L 824.0,476.0 L 820.0,485.0 L 814.0,490.0 L 803.0,492.0 L 792.0,497.0 L 785.0,504.0 L 778.0,516.0 L 776.0,527.0 L 778.0,540.0 L 775.0,542.0 L 759.0,533.0 L 750.0,533.0 L 746.0,538.0 L 746.0,557.0 L 750.0,574.0 L 750.0,589.0 L 745.0,595.0 L 737.0,595.0 L 729.0,592.0 L 722.0,587.0 L 687.0,551.0 L 669.0,540.0 L 665.0,535.0 L 665.0,532.0 L 667.0,530.0 L 674.0,527.0 L 686.0,524.0 L 695.0,519.0 L 702.0,517.0 L 719.0,516.0 L 726.0,513.0 L 737.0,502.0 L 754.0,494.0 L 760.0,487.0 L 762.0,480.0 L 759.0,466.0 L 750.0,451.0 L 742.0,446.0 L 733.0,444.0 L 724.0,440.0 L 714.0,432.0 L 710.0,426.0 L 707.0,418.0 L 704.0,400.0 L 702.0,396.0 L 696.0,390.0 L 688.0,387.0 L 677.0,387.0 L 668.0,389.0 L 663.0,392.0 L 660.0,396.0 L 659.0,403.0 L 654.0,415.0 L 645.0,424.0 L 639.0,436.0 L 633.0,445.0 L 622.0,455.0 L 607.0,460.0 L 589.0,461.0 L 574.0,457.0 L 560.0,457.0 L 531.0,465.0 L 523.0,465.0 L 513.0,463.0 L 506.0,460.0 L 500.0,454.0 L 499.0,451.0 L 502.0,438.0 Z M 484.0,353.0 L 487.0,356.0 L 487.0,359.0 L 486.0,363.0 L 482.0,371.0 L 477.0,378.0 L 475.0,382.0 L 475.0,388.0 L 476.0,390.0 L 478.0,393.0 L 486.0,402.0 L 488.0,406.0 L 485.0,409.0 L 481.0,410.0 L 477.0,410.0 L 472.0,409.0 L 470.0,408.0 L 466.0,404.0 L 466.0,395.0 L 467.0,384.0 L 465.0,381.0 L 464.0,378.0 L 464.0,373.0 L 464.0,370.0 L 465.0,370.0 L 469.0,362.0 L 472.0,358.0 L 475.0,355.0 L 479.0,353.0 Z M 338.0,332.0 L 341.0,334.0 L 343.0,336.0 L 343.0,337.0 L 346.0,340.0 L 354.0,353.0 L 359.0,358.0 L 365.0,366.0 L 369.0,372.0 L 371.0,378.0 L 371.0,382.0 L 372.0,385.0 L 377.0,394.0 L 377.0,396.0 L 376.0,398.0 L 375.0,399.0 L 373.0,400.0 L 370.0,400.0 L 368.0,399.0 L 366.0,397.0 L 363.0,391.0 L 361.0,385.0 L 361.0,370.0 L 360.0,367.0 L 359.0,365.0 L 348.0,354.0 L 340.0,349.0 L 334.0,343.0 L 334.0,335.0 Z M 527.0,304.0 L 529.0,305.0 L 532.0,308.0 L 533.0,310.0 L 534.0,314.0 L 534.0,318.0 L 533.0,323.0 L 532.0,326.0 L 529.0,332.0 L 523.0,338.0 L 519.0,340.0 L 511.0,340.0 L 509.0,338.0 L 508.0,336.0 L 508.0,334.0 L 509.0,333.0 L 509.0,330.0 L 510.0,327.0 L 512.0,324.0 L 513.0,317.0 L 515.0,311.0 L 517.0,308.0 L 519.0,306.0 L 523.0,304.0 Z M 695.0,326.0 L 693.0,330.0 L 692.0,331.0 L 691.0,331.0 L 689.0,333.0 L 685.0,335.0 L 682.0,336.0 L 673.0,338.0 L 658.0,340.0 L 642.0,340.0 L 622.0,339.0 L 613.0,341.0 L 603.0,345.0 L 599.0,345.0 L 597.0,344.0 L 596.0,343.0 L 595.0,341.0 L 594.0,338.0 L 594.0,336.0 L 595.0,331.0 L 597.0,326.0 L 597.0,321.0 L 598.0,317.0 L 599.0,315.0 L 602.0,312.0 L 605.0,310.0 L 609.0,308.0 L 616.0,305.0 L 622.0,303.0 L 626.0,302.0 L 632.0,302.0 L 636.0,303.0 L 646.0,307.0 L 650.0,308.0 L 656.0,308.0 L 660.0,307.0 L 670.0,302.0 L 673.0,301.0 L 675.0,301.0 L 679.0,303.0 L 681.0,305.0 L 683.0,308.0 L 685.0,312.0 L 690.0,317.0 L 694.0,322.0 L 694.0,324.0 Z M 168.0,138.0 L 171.0,140.0 L 189.0,159.0 L 192.0,164.0 L 208.0,180.0 L 212.0,186.0 L 215.0,192.0 L 215.0,194.0 L 213.0,196.0 L 206.0,196.0 L 201.0,198.0 L 199.0,200.0 L 197.0,205.0 L 197.0,214.0 L 200.0,228.0 L 203.0,236.0 L 206.0,241.0 L 209.0,244.0 L 209.0,245.0 L 211.0,247.0 L 214.0,249.0 L 220.0,249.0 L 224.0,247.0 L 230.0,247.0 L 233.0,248.0 L 236.0,250.0 L 245.0,258.0 L 256.0,265.0 L 267.0,270.0 L 270.0,272.0 L 273.0,275.0 L 274.0,277.0 L 274.0,281.0 L 269.0,286.0 L 256.0,292.0 L 251.0,295.0 L 246.0,299.0 L 239.0,306.0 L 232.0,310.0 L 227.0,310.0 L 224.0,309.0 L 221.0,307.0 L 217.0,303.0 L 213.0,297.0 L 206.0,283.0 L 202.0,278.0 L 197.0,268.0 L 197.0,268.0 L 194.0,259.0 L 192.0,250.0 L 189.0,241.0 L 185.0,231.0 L 177.0,216.0 L 176.0,213.0 L 176.0,194.0 L 175.0,187.0 L 173.0,181.0 L 172.0,174.0 L 172.0,165.0 L 170.0,154.0 L 168.0,149.0 L 167.0,144.0 Z M 812.0,109.0 L 813.0,111.0 L 813.0,113.0 L 812.0,118.0 L 808.0,126.0 L 806.0,133.0 L 805.0,140.0 L 805.0,150.0 L 805.0,150.0 L 804.0,156.0 L 802.0,161.0 L 801.0,166.0 L 801.0,174.0 L 800.0,180.0 L 798.0,188.0 L 795.0,195.0 L 794.0,201.0 L 794.0,209.0 L 793.0,215.0 L 790.0,225.0 L 788.0,228.0 L 787.0,231.0 L 785.0,243.0 L 782.0,253.0 L 777.0,262.0 L 774.0,266.0 L 770.0,270.0 L 768.0,273.0 L 765.0,279.0 L 765.0,281.0 L 762.0,287.0 L 759.0,291.0 L 756.0,294.0 L 750.0,298.0 L 747.0,299.0 L 744.0,299.0 L 741.0,298.0 L 738.0,296.0 L 725.0,283.0 L 716.0,276.0 L 708.0,271.0 L 704.0,269.0 L 702.0,269.0 L 696.0,266.0 L 694.0,264.0 L 693.0,262.0 L 693.0,260.0 L 694.0,258.0 L 697.0,255.0 L 703.0,252.0 L 710.0,250.0 L 720.0,245.0 L 724.0,242.0 L 735.0,231.0 L 741.0,227.0 L 747.0,227.0 L 755.0,232.0 L 761.0,232.0 L 768.0,228.0 L 772.0,224.0 L 775.0,218.0 L 776.0,214.0 L 777.0,205.0 L 782.0,190.0 L 782.0,179.0 L 781.0,176.0 L 777.0,172.0 L 772.0,170.0 L 764.0,170.0 L 762.0,171.0 L 754.0,179.0 L 752.0,180.0 L 747.0,179.0 L 747.0,177.0 L 751.0,172.0 L 752.0,172.0 L 755.0,169.0 L 758.0,168.0 L 761.0,166.0 L 768.0,159.0 L 773.0,156.0 L 782.0,147.0 L 796.0,128.0 L 799.0,122.0 L 799.0,120.0 L 803.0,112.0 L 807.0,108.0 Z M 979.0,21.0 L 976.0,22.0 L 974.0,24.0 L 972.0,27.0 L 968.0,35.0 L 966.0,40.0 L 965.0,43.0 L 964.0,47.0 L 962.0,57.0 L 962.0,63.0 L 963.0,65.0 L 967.0,65.0 L 974.0,61.0 L 979.0,61.0 Z" />
</svg>