<svg xmlns="http://www.w3.org/2000/svg" viewBox="0 0 1450 720" width="100%" height="100%" fill="currentColor">
    <path fill-rule="evenodd" d="M 1292.0,71.0 L 1257.0,54.0 L 1203.0,41.0 L 1049.0,29.0 L 919.0,35.0 L 848.0,47.0 L 796.0,64.0 L 783.0,65.0 L 751.0,48.0 L 711.0,39.0 L 704.0,34.0 L 708.0,22.0 L 732.0,6.0 L 736.0,0.0 L 701.0,0.0 L 700.0,8.0 L 692.0,22.0 L 692.0,35.0 L 677.0,49.0 L 663.0,45.0 L 635.0,22.0 L 616.0,17.0 L 597.0,18.0 L 591.0,21.0 L 587.0,28.0 L 592.0,39.0 L 600.0,42.0 L 628.0,41.0 L 640.0,44.0 L 647.0,50.0 L 645.0,59.0 L 613.0,91.0 L 598.0,115.0 L 582.0,125.0 L 536.0,136.0 L 471.0,160.0 L 406.0,194.0 L 325.0,244.0 L 234.0,312.0 L 202.0,343.0 L 169.0,387.0 L 161.0,406.0 L 161.0,420.0 L 168.0,435.0 L 175.0,442.0 L 186.0,446.0 L 215.0,445.0 L 265.0,432.0 L 307.0,432.0 L 433.0,453.0 L 442.0,458.0 L 501.0,516.0 L 538.0,541.0 L 610.0,570.0 L 636.0,575.0 L 659.0,575.0 L 685.0,583.0 L 693.0,582.0 L 697.0,575.0 L 682.0,555.0 L 688.0,548.0 L 696.0,547.0 L 725.0,591.0 L 771.0,612.0 L 788.0,629.0 L 807.0,660.0 L 826.0,719.0 L 850.0,719.0 L 853.0,683.0 L 857.0,673.0 L 883.0,703.0 L 895.0,707.0 L 903.0,699.0 L 904.0,684.0 L 894.0,643.0 L 892.0,595.0 L 903.0,564.0 L 928.0,528.0 L 929.0,520.0 L 924.0,506.0 L 927.0,482.0 L 934.0,476.0 L 945.0,479.0 L 942.0,508.0 L 946.0,510.0 L 969.0,483.0 L 993.0,472.0 L 1009.0,457.0 L 1019.0,439.0 L 1010.0,423.0 L 1015.0,390.0 L 1025.0,359.0 L 1051.0,313.0 L 1062.0,301.0 L 1079.0,295.0 L 1111.0,247.0 L 1196.0,175.0 L 1226.0,154.0 L 1287.0,133.0 L 1308.0,118.0 L 1313.0,106.0 L 1311.0,91.0 Z M 481.0,473.0 L 484.0,470.0 L 486.0,470.0 L 488.0,469.0 L 495.0,470.0 L 504.0,473.0 L 513.0,477.0 L 536.0,490.0 L 549.0,498.0 L 564.0,509.0 L 571.0,516.0 L 573.0,520.0 L 588.0,535.0 L 590.0,538.0 L 591.0,541.0 L 591.0,548.0 L 589.0,550.0 L 587.0,551.0 L 581.0,551.0 L 577.0,550.0 L 569.0,546.0 L 566.0,543.0 L 553.0,537.0 L 547.0,533.0 L 544.0,530.0 L 538.0,526.0 L 530.0,522.0 L 527.0,520.0 L 517.0,510.0 L 510.0,506.0 L 492.0,489.0 L 484.0,481.0 L 482.0,478.0 L 481.0,476.0 Z M 973.0,424.0 L 975.0,428.0 L 976.0,431.0 L 977.0,436.0 L 977.0,442.0 L 976.0,446.0 L 974.0,449.0 L 972.0,451.0 L 971.0,451.0 L 968.0,455.0 L 969.0,457.0 L 971.0,460.0 L 972.0,463.0 L 972.0,466.0 L 971.0,470.0 L 970.0,472.0 L 964.0,478.0 L 961.0,479.0 L 955.0,479.0 L 953.0,478.0 L 951.0,476.0 L 951.0,472.0 L 953.0,457.0 L 954.0,455.0 L 956.0,453.0 L 959.0,452.0 L 961.0,450.0 L 961.0,443.0 L 962.0,437.0 L 965.0,428.0 L 966.0,426.0 L 969.0,423.0 Z M 684.0,396.0 L 690.0,396.0 L 692.0,397.0 L 701.0,406.0 L 719.0,433.0 L 737.0,450.0 L 739.0,453.0 L 742.0,461.0 L 745.0,476.0 L 747.0,483.0 L 749.0,488.0 L 752.0,493.0 L 754.0,499.0 L 754.0,502.0 L 757.0,511.0 L 763.0,520.0 L 766.0,527.0 L 766.0,537.0 L 765.0,539.0 L 761.0,543.0 L 752.0,543.0 L 749.0,542.0 L 741.0,538.0 L 746.0,534.0 L 727.0,530.0 L 724.0,528.0 L 718.0,522.0 L 709.0,509.0 L 708.0,507.0 L 706.0,500.0 L 703.0,494.0 L 700.0,491.0 L 696.0,492.0 L 697.0,509.0 L 696.0,512.0 L 690.0,523.0 L 688.0,526.0 L 685.0,529.0 L 683.0,530.0 L 674.0,530.0 L 671.0,529.0 L 664.0,525.0 L 659.0,520.0 L 655.0,514.0 L 650.0,504.0 L 649.0,501.0 L 649.0,497.0 L 651.0,493.0 L 659.0,485.0 L 664.0,482.0 L 668.0,478.0 L 669.0,478.0 L 672.0,475.0 L 673.0,473.0 L 672.0,460.0 L 672.0,452.0 L 673.0,447.0 L 675.0,442.0 L 677.0,428.0 L 677.0,420.0 L 679.0,406.0 L 680.0,402.0 L 682.0,398.0 Z M 859.0,347.0 L 883.0,371.0 L 894.0,384.0 L 899.0,391.0 L 907.0,407.0 L 909.0,408.0 L 929.0,407.0 L 936.0,409.0 L 940.0,413.0 L 945.0,425.0 L 946.0,431.0 L 946.0,440.0 L 944.0,447.0 L 941.0,452.0 L 935.0,458.0 L 927.0,460.0 L 918.0,458.0 L 907.0,452.0 L 902.0,447.0 L 899.0,440.0 L 898.0,434.0 L 895.0,432.0 L 893.0,436.0 L 892.0,446.0 L 893.0,452.0 L 897.0,461.0 L 897.0,467.0 L 890.0,487.0 L 883.0,502.0 L 870.0,516.0 L 868.0,517.0 L 863.0,517.0 L 857.0,512.0 L 856.0,509.0 L 856.0,498.0 L 854.0,495.0 L 854.0,515.0 L 852.0,524.0 L 850.0,550.0 L 851.0,637.0 L 850.0,642.0 L 848.0,644.0 L 846.0,644.0 L 841.0,638.0 L 822.0,600.0 L 811.0,585.0 L 805.0,573.0 L 794.0,560.0 L 786.0,547.0 L 779.0,539.0 L 766.0,507.0 L 755.0,488.0 L 755.0,483.0 L 761.0,478.0 L 766.0,478.0 L 770.0,479.0 L 789.0,489.0 L 793.0,490.0 L 800.0,490.0 L 804.0,489.0 L 812.0,485.0 L 820.0,477.0 L 823.0,473.0 L 830.0,459.0 L 834.0,455.0 L 837.0,455.0 L 841.0,459.0 L 843.0,463.0 L 845.0,471.0 L 849.0,477.0 L 850.0,460.0 L 849.0,452.0 L 847.0,444.0 L 845.0,440.0 L 842.0,426.0 L 842.0,409.0 L 846.0,398.0 L 848.0,389.0 L 848.0,358.0 L 849.0,353.0 L 852.0,348.0 L 854.0,347.0 Z M 989.0,341.0 L 985.0,345.0 L 983.0,346.0 L 978.0,348.0 L 963.0,353.0 L 952.0,356.0 L 943.0,358.0 L 930.0,359.0 L 915.0,359.0 L 911.0,358.0 L 905.0,356.0 L 903.0,355.0 L 898.0,352.0 L 892.0,348.0 L 890.0,346.0 L 891.0,343.0 L 897.0,343.0 L 907.0,346.0 L 928.0,346.0 L 937.0,344.0 L 948.0,345.0 L 957.0,345.0 L 970.0,340.0 L 978.0,338.0 L 987.0,338.0 Z M 272.0,336.0 L 274.0,336.0 L 276.0,338.0 L 279.0,344.0 L 282.0,355.0 L 288.0,367.0 L 292.0,373.0 L 297.0,379.0 L 299.0,382.0 L 301.0,386.0 L 299.0,388.0 L 297.0,388.0 L 289.0,384.0 L 286.0,382.0 L 282.0,379.0 L 275.0,372.0 L 272.0,368.0 L 269.0,362.0 L 268.0,359.0 L 267.0,354.0 L 267.0,348.0 L 268.0,343.0 L 269.0,340.0 L 270.0,338.0 Z M 829.0,324.0 L 829.0,336.0 L 826.0,348.0 L 824.0,354.0 L 823.0,356.0 L 815.0,368.0 L 812.0,372.0 L 805.0,380.0 L 799.0,389.0 L 794.0,399.0 L 790.0,413.0 L 789.0,415.0 L 785.0,419.0 L 782.0,419.0 L 780.0,418.0 L 777.0,416.0 L 773.0,412.0 L 753.0,400.0 L 747.0,397.0 L 742.0,395.0 L 732.0,392.0 L 722.0,387.0 L 715.0,383.0 L 709.0,379.0 L 704.0,374.0 L 694.0,359.0 L 693.0,357.0 L 693.0,355.0 L 696.0,352.0 L 714.0,352.0 L 727.0,353.0 L 732.0,354.0 L 741.0,357.0 L 747.0,360.0 L 749.0,362.0 L 757.0,366.0 L 764.0,368.0 L 769.0,368.0 L 772.0,367.0 L 776.0,363.0 L 782.0,350.0 L 800.0,332.0 L 818.0,320.0 L 820.0,319.0 L 825.0,319.0 L 828.0,322.0 Z M 346.0,304.0 L 350.0,295.0 L 354.0,292.0 L 357.0,296.0 L 363.0,318.0 L 366.0,324.0 L 370.0,330.0 L 375.0,335.0 L 378.0,337.0 L 387.0,341.0 L 400.0,345.0 L 411.0,347.0 L 427.0,348.0 L 439.0,347.0 L 443.0,346.0 L 465.0,336.0 L 474.0,336.0 L 490.0,341.0 L 498.0,345.0 L 513.0,349.0 L 519.0,352.0 L 531.0,364.0 L 545.0,373.0 L 559.0,379.0 L 566.0,381.0 L 577.0,383.0 L 592.0,383.0 L 602.0,381.0 L 610.0,378.0 L 617.0,378.0 L 619.0,381.0 L 618.0,383.0 L 613.0,388.0 L 607.0,392.0 L 594.0,399.0 L 584.0,402.0 L 566.0,402.0 L 558.0,401.0 L 545.0,398.0 L 533.0,393.0 L 521.0,385.0 L 514.0,382.0 L 499.0,372.0 L 489.0,366.0 L 479.0,361.0 L 468.0,357.0 L 459.0,355.0 L 447.0,355.0 L 441.0,356.0 L 427.0,360.0 L 415.0,366.0 L 401.0,375.0 L 384.0,384.0 L 380.0,385.0 L 374.0,385.0 L 367.0,383.0 L 358.0,378.0 L 352.0,372.0 L 346.0,364.0 L 343.0,357.0 L 342.0,352.0 L 342.0,323.0 Z M 418.0,284.0 L 420.0,285.0 L 423.0,288.0 L 424.0,290.0 L 424.0,298.0 L 422.0,302.0 L 419.0,305.0 L 415.0,307.0 L 412.0,308.0 L 409.0,308.0 L 405.0,306.0 L 403.0,304.0 L 402.0,302.0 L 402.0,295.0 L 404.0,291.0 L 410.0,285.0 L 412.0,284.0 Z M 659.0,266.0 L 661.0,264.0 L 663.0,264.0 L 665.0,263.0 L 670.0,264.0 L 682.0,267.0 L 689.0,270.0 L 694.0,271.0 L 700.0,271.0 L 705.0,272.0 L 708.0,273.0 L 714.0,276.0 L 718.0,279.0 L 722.0,283.0 L 724.0,286.0 L 723.0,292.0 L 721.0,293.0 L 707.0,293.0 L 698.0,295.0 L 690.0,295.0 L 686.0,294.0 L 683.0,293.0 L 679.0,291.0 L 676.0,289.0 L 665.0,278.0 L 660.0,272.0 L 659.0,270.0 Z M 634.0,257.0 L 640.0,257.0 L 644.0,261.0 L 646.0,265.0 L 647.0,268.0 L 648.0,276.0 L 648.0,285.0 L 650.0,291.0 L 651.0,297.0 L 651.0,308.0 L 650.0,311.0 L 648.0,313.0 L 645.0,312.0 L 644.0,309.0 L 644.0,306.0 L 642.0,300.0 L 640.0,296.0 L 637.0,292.0 L 630.0,285.0 L 629.0,285.0 L 622.0,278.0 L 622.0,271.0 L 625.0,265.0 L 632.0,258.0 Z M 378.0,243.0 L 380.0,240.0 L 383.0,235.0 L 386.0,231.0 L 389.0,228.0 L 392.0,226.0 L 396.0,224.0 L 399.0,223.0 L 409.0,223.0 L 413.0,224.0 L 418.0,226.0 L 420.0,227.0 L 426.0,231.0 L 433.0,238.0 L 432.0,241.0 L 430.0,242.0 L 425.0,242.0 L 404.0,241.0 L 396.0,243.0 L 389.0,246.0 L 381.0,248.0 L 379.0,247.0 Z M 813.0,218.0 L 815.0,220.0 L 816.0,222.0 L 817.0,228.0 L 816.0,234.0 L 814.0,239.0 L 807.0,252.0 L 804.0,256.0 L 797.0,263.0 L 791.0,268.0 L 788.0,270.0 L 782.0,273.0 L 779.0,274.0 L 776.0,274.0 L 775.0,275.0 L 773.0,275.0 L 771.0,274.0 L 768.0,271.0 L 768.0,260.0 L 769.0,257.0 L 771.0,254.0 L 775.0,250.0 L 782.0,246.0 L 789.0,239.0 L 792.0,233.0 L 794.0,230.0 L 804.0,220.0 L 808.0,218.0 Z M 827.0,199.0 L 835.0,199.0 L 838.0,200.0 L 844.0,203.0 L 847.0,205.0 L 849.0,207.0 L 850.0,209.0 L 850.0,215.0 L 849.0,218.0 L 845.0,225.0 L 844.0,228.0 L 844.0,239.0 L 845.0,242.0 L 846.0,244.0 L 849.0,248.0 L 851.0,252.0 L 851.0,259.0 L 850.0,261.0 L 849.0,262.0 L 847.0,263.0 L 844.0,263.0 L 840.0,261.0 L 837.0,258.0 L 835.0,255.0 L 834.0,253.0 L 832.0,245.0 L 827.0,235.0 L 824.0,224.0 L 820.0,217.0 L 819.0,214.0 L 819.0,210.0 L 820.0,207.0 L 822.0,203.0 L 825.0,200.0 Z M 572.0,164.0 L 575.0,167.0 L 576.0,169.0 L 577.0,173.0 L 577.0,185.0 L 580.0,194.0 L 582.0,197.0 L 586.0,201.0 L 589.0,203.0 L 594.0,205.0 L 598.0,208.0 L 605.0,215.0 L 613.0,226.0 L 615.0,232.0 L 615.0,239.0 L 614.0,242.0 L 602.0,266.0 L 593.0,277.0 L 584.0,286.0 L 581.0,288.0 L 574.0,291.0 L 564.0,299.0 L 557.0,301.0 L 543.0,303.0 L 533.0,303.0 L 529.0,302.0 L 525.0,300.0 L 520.0,295.0 L 517.0,293.0 L 513.0,291.0 L 499.0,286.0 L 499.0,291.0 L 497.0,295.0 L 495.0,298.0 L 487.0,307.0 L 483.0,311.0 L 479.0,313.0 L 477.0,313.0 L 475.0,312.0 L 473.0,310.0 L 471.0,304.0 L 471.0,296.0 L 469.0,289.0 L 468.0,282.0 L 468.0,275.0 L 469.0,273.0 L 471.0,271.0 L 478.0,271.0 L 485.0,274.0 L 487.0,274.0 L 485.0,269.0 L 478.0,259.0 L 469.0,250.0 L 463.0,246.0 L 459.0,241.0 L 459.0,239.0 L 458.0,237.0 L 459.0,233.0 L 461.0,229.0 L 463.0,226.0 L 467.0,222.0 L 467.0,221.0 L 470.0,218.0 L 480.0,211.0 L 483.0,210.0 L 492.0,204.0 L 499.0,198.0 L 516.0,187.0 L 533.0,178.0 L 559.0,166.0 L 565.0,164.0 Z M 708.0,138.0 L 719.0,138.0 L 737.0,141.0 L 743.0,143.0 L 750.0,147.0 L 759.0,154.0 L 769.0,164.0 L 773.0,169.0 L 777.0,177.0 L 778.0,180.0 L 779.0,185.0 L 780.0,193.0 L 780.0,211.0 L 779.0,218.0 L 777.0,225.0 L 774.0,231.0 L 771.0,235.0 L 767.0,239.0 L 765.0,243.0 L 759.0,249.0 L 756.0,251.0 L 737.0,258.0 L 728.0,260.0 L 720.0,260.0 L 719.0,261.0 L 712.0,261.0 L 709.0,260.0 L 705.0,258.0 L 695.0,251.0 L 688.0,248.0 L 684.0,245.0 L 680.0,241.0 L 672.0,230.0 L 667.0,220.0 L 665.0,213.0 L 664.0,207.0 L 664.0,188.0 L 665.0,183.0 L 666.0,180.0 L 671.0,169.0 L 675.0,163.0 L 680.0,158.0 L 680.0,157.0 L 684.0,153.0 L 696.0,144.0 L 701.0,141.0 L 705.0,139.0 Z M 1018.0,112.0 L 1023.0,107.0 L 1025.0,106.0 L 1028.0,105.0 L 1032.0,105.0 L 1036.0,106.0 L 1039.0,107.0 L 1042.0,109.0 L 1045.0,112.0 L 1047.0,115.0 L 1048.0,117.0 L 1049.0,120.0 L 1049.0,122.0 L 1048.0,124.0 L 1044.0,128.0 L 1040.0,130.0 L 1030.0,130.0 L 1027.0,129.0 L 1025.0,128.0 L 1018.0,121.0 L 1017.0,118.0 L 1017.0,115.0 Z M 1109.0,98.0 L 1114.0,105.0 L 1127.0,130.0 L 1129.0,139.0 L 1128.0,152.0 L 1125.0,162.0 L 1121.0,170.0 L 1116.0,176.0 L 1109.0,180.0 L 1103.0,182.0 L 1086.0,182.0 L 1067.0,181.0 L 1049.0,184.0 L 1040.0,187.0 L 1027.0,196.0 L 1025.0,196.0 L 1015.0,207.0 L 1012.0,211.0 L 1005.0,227.0 L 1000.0,234.0 L 997.0,240.0 L 995.0,247.0 L 990.0,256.0 L 974.0,277.0 L 956.0,295.0 L 949.0,298.0 L 929.0,303.0 L 906.0,303.0 L 900.0,301.0 L 896.0,298.0 L 895.0,296.0 L 898.0,293.0 L 902.0,291.0 L 920.0,287.0 L 931.0,283.0 L 936.0,280.0 L 944.0,274.0 L 958.0,260.0 L 960.0,257.0 L 965.0,246.0 L 968.0,237.0 L 968.0,234.0 L 970.0,228.0 L 975.0,217.0 L 988.0,200.0 L 997.0,190.0 L 999.0,187.0 L 1002.0,180.0 L 1004.0,178.0 L 1006.0,177.0 L 1016.0,176.0 L 1025.0,176.0 L 1031.0,175.0 L 1041.0,172.0 L 1059.0,161.0 L 1067.0,155.0 L 1072.0,149.0 L 1074.0,145.0 L 1082.0,136.0 L 1084.0,132.0 L 1086.0,125.0 L 1086.0,106.0 L 1084.0,97.0 L 1082.0,93.0 L 1080.0,84.0 L 1082.0,82.0 L 1086.0,82.0 L 1095.0,86.0 L 1103.0,92.0 Z M 829.0,89.0 L 832.0,86.0 L 836.0,84.0 L 841.0,83.0 L 871.0,80.0 L 888.0,79.0 L 932.0,79.0 L 954.0,80.0 L 957.0,81.0 L 964.0,85.0 L 971.0,92.0 L 971.0,116.0 L 972.0,119.0 L 985.0,145.0 L 989.0,150.0 L 994.0,159.0 L 995.0,162.0 L 995.0,168.0 L 993.0,170.0 L 991.0,171.0 L 984.0,171.0 L 971.0,168.0 L 964.0,165.0 L 956.0,156.0 L 954.0,158.0 L 953.0,160.0 L 951.0,166.0 L 948.0,180.0 L 946.0,184.0 L 943.0,187.0 L 937.0,190.0 L 919.0,198.0 L 903.0,202.0 L 892.0,202.0 L 880.0,199.0 L 873.0,199.0 L 869.0,198.0 L 863.0,195.0 L 857.0,191.0 L 845.0,186.0 L 833.0,177.0 L 829.0,172.0 L 827.0,165.0 L 827.0,150.0 L 828.0,145.0 L 830.0,139.0 L 834.0,134.0 L 837.0,127.0 L 837.0,120.0 L 834.0,110.0 L 832.0,107.0 L 829.0,98.0 Z M 1167.0,65.0 L 1175.0,69.0 L 1178.0,71.0 L 1186.0,79.0 L 1188.0,82.0 L 1192.0,90.0 L 1194.0,99.0 L 1194.0,116.0 L 1193.0,120.0 L 1180.0,146.0 L 1177.0,150.0 L 1170.0,157.0 L 1166.0,160.0 L 1164.0,161.0 L 1161.0,160.0 L 1161.0,158.0 L 1163.0,152.0 L 1168.0,141.0 L 1175.0,121.0 L 1176.0,114.0 L 1176.0,110.0 L 1175.0,109.0 L 1175.0,104.0 L 1174.0,100.0 L 1172.0,94.0 L 1168.0,85.0 L 1161.0,72.0 L 1160.0,69.0 L 1160.0,67.0 L 1162.0,65.0 Z M 681.0,59.0 L 686.0,59.0 L 691.0,60.0 L 694.0,61.0 L 700.0,64.0 L 707.0,69.0 L 713.0,75.0 L 719.0,80.0 L 722.0,82.0 L 733.0,87.0 L 737.0,91.0 L 738.0,93.0 L 738.0,96.0 L 737.0,98.0 L 731.0,104.0 L 725.0,108.0 L 715.0,114.0 L 709.0,119.0 L 702.0,126.0 L 700.0,127.0 L 690.0,127.0 L 685.0,126.0 L 680.0,124.0 L 675.0,123.0 L 658.0,123.0 L 656.0,122.0 L 654.0,120.0 L 654.0,114.0 L 656.0,106.0 L 657.0,103.0 L 663.0,90.0 L 666.0,79.0 L 670.0,71.0 L 675.0,63.0 L 678.0,60.0 Z M 1043.0,56.0 L 1044.0,61.0 L 1042.0,62.0 L 1034.0,64.0 L 1030.0,64.0 L 1019.0,67.0 L 1013.0,69.0 L 1007.0,72.0 L 1004.0,74.0 L 996.0,82.0 L 990.0,85.0 L 985.0,85.0 L 983.0,83.0 L 983.0,78.0 L 985.0,72.0 L 986.0,70.0 L 998.0,52.0 L 1006.0,44.0 L 1008.0,43.0 L 1011.0,42.0 L 1018.0,42.0 L 1022.0,43.0 L 1028.0,45.0 L 1028.0,48.0 L 1039.0,52.0 Z" />
</svg>