<svg xmlns="http://www.w3.org/2000/svg" viewBox="0 0 122 114" width="100%" height="100%" fill="currentColor">
    <path fill-rule="evenodd" d="M 59.0,64.0 L 56.0,67.0 L 54.0,67.0 L 52.0,68.0 L 51.0,69.0 L 49.0,73.0 L 49.0,75.0 L 44.0,84.0 L 40.0,93.0 L 37.0,102.0 L 34.0,108.0 L 36.0,108.0 L 41.0,103.0 L 42.0,100.0 L 48.0,85.0 L 51.0,79.0 L 54.0,79.0 L 54.0,83.0 L 55.0,85.0 L 56.0,83.0 L 56.0,72.0 L 58.0,70.0 L 60.0,73.0 L 61.0,76.0 L 63.0,78.0 L 64.0,81.0 L 64.0,77.0 L 62.0,70.0 L 61.0,67.0 L 60.0,66.0 Z M 44.0,57.0 L 38.0,60.0 L 30.0,65.0 L 36.0,63.0 L 41.0,65.0 L 32.0,75.0 L 34.0,74.0 L 38.0,71.0 L 39.0,74.0 L 38.0,77.0 L 33.0,86.0 L 29.0,95.0 L 28.0,98.0 L 28.0,106.0 L 30.0,105.0 L 30.0,103.0 L 33.0,98.0 L 33.0,96.0 L 36.0,89.0 L 41.0,78.0 L 47.0,67.0 L 47.0,65.0 L 45.0,63.0 Z M 60.0,48.0 L 60.0,53.0 L 67.0,73.0 L 68.0,75.0 L 83.0,76.0 L 85.0,75.0 L 85.0,73.0 L 66.0,50.0 L 69.0,53.0 L 78.0,60.0 L 89.0,68.0 L 92.0,70.0 L 94.0,71.0 L 98.0,71.0 L 101.0,70.0 L 106.0,67.0 L 109.0,66.0 L 111.0,66.0 L 111.0,62.0 L 107.0,60.0 L 105.0,60.0 L 89.0,53.0 L 80.0,48.0 L 71.0,45.0 L 69.0,44.0 L 67.0,42.0 L 70.0,39.0 L 67.0,39.0 L 66.0,40.0 L 64.0,40.0 Z M 9.0,19.0 L 9.0,21.0 L 10.0,24.0 L 13.0,31.0 L 14.0,34.0 L 17.0,37.0 L 22.0,38.0 L 46.0,42.0 L 50.0,43.0 L 52.0,45.0 L 20.0,45.0 L 20.0,48.0 L 26.0,55.0 L 29.0,58.0 L 32.0,58.0 L 35.0,57.0 L 40.0,55.0 L 47.0,51.0 L 54.0,49.0 L 56.0,47.0 L 59.0,40.0 L 59.0,37.0 L 56.0,33.0 L 53.0,36.0 L 51.0,36.0 L 31.0,26.0 L 22.0,22.0 L 12.0,18.0 Z" />
</svg>