<svg xmlns="http://www.w3.org/2000/svg" viewBox="0 0 145 72" width="100%" height="100%" fill="currentColor">
    <path fill-rule="evenodd" d="M 16.0,40.0 L 16.0,42.0 L 18.0,44.0 L 21.0,44.0 L 26.0,42.0 L 31.0,42.0 L 43.0,44.0 L 50.0,51.0 L 54.0,54.0 L 59.0,56.0 L 64.0,57.0 L 69.0,57.0 L 67.0,55.0 L 69.0,54.0 L 73.0,59.0 L 76.0,60.0 L 80.0,64.0 L 82.0,68.0 L 84.0,71.0 L 85.0,65.0 L 89.0,70.0 L 88.0,63.0 L 88.0,59.0 L 89.0,56.0 L 92.0,53.0 L 92.0,51.0 L 91.0,49.0 L 93.0,47.0 L 94.0,50.0 L 97.0,47.0 L 98.0,47.0 L 101.0,43.0 L 100.0,39.0 L 101.0,36.0 L 103.0,32.0 L 107.0,29.0 L 117.0,18.0 L 121.0,15.0 L 123.0,14.0 L 127.0,13.0 L 129.0,12.0 L 129.0,7.0 L 125.0,5.0 L 121.0,4.0 L 113.0,3.0 L 93.0,3.0 L 86.0,4.0 L 82.0,6.0 L 78.0,7.0 L 73.0,4.0 L 69.0,3.0 L 73.0,0.0 L 70.0,0.0 L 69.0,3.0 L 65.0,4.0 L 63.0,2.0 L 59.0,3.0 L 63.0,3.0 L 65.0,5.0 L 61.0,10.0 L 59.0,12.0 L 57.0,13.0 L 54.0,14.0 L 51.0,14.0 L 48.0,15.0 L 35.0,22.0 L 28.0,27.0 L 23.0,31.0 L 19.0,35.0 Z M 47.0,47.0 L 50.0,46.0 L 52.0,47.0 L 55.0,49.0 L 57.0,55.0 L 55.0,54.0 L 52.0,52.0 Z M 83.0,44.0 L 85.0,48.0 L 84.0,65.0 L 83.0,63.0 L 82.0,62.0 L 82.0,60.0 L 78.0,55.0 L 77.0,52.0 L 77.0,47.0 L 80.0,48.0 L 82.0,46.0 Z M 69.0,39.0 L 71.0,41.0 L 71.0,42.0 L 74.0,45.0 L 75.0,48.0 L 77.0,53.0 L 74.0,54.0 L 72.0,53.0 L 70.0,51.0 L 69.0,49.0 L 69.0,52.0 L 67.0,53.0 L 64.0,49.0 L 66.0,47.0 L 67.0,43.0 Z M 86.0,34.0 L 89.0,37.0 L 90.0,40.0 L 94.0,41.0 L 95.0,43.0 L 94.0,45.0 L 91.0,46.0 L 89.0,43.0 L 90.0,46.0 L 89.0,49.0 L 86.0,52.0 L 85.0,48.0 L 83.0,43.0 L 83.0,40.0 L 84.0,39.0 Z M 96.0,35.0 L 89.0,35.0 L 94.0,33.0 Z M 27.0,32.0 L 28.0,35.0 L 28.0,38.0 L 26.0,36.0 Z M 83.0,32.0 L 83.0,34.0 L 82.0,36.0 L 78.0,42.0 L 72.0,39.0 L 68.0,35.0 L 72.0,34.0 L 75.0,36.0 L 77.0,36.0 Z M 33.0,31.0 L 35.0,27.0 L 36.0,31.0 L 37.0,33.0 L 39.0,33.0 L 40.0,34.0 L 44.0,34.0 L 45.0,33.0 L 49.0,33.0 L 51.0,34.0 L 53.0,36.0 L 55.0,37.0 L 62.0,38.0 L 60.0,39.0 L 59.0,40.0 L 54.0,40.0 L 52.0,39.0 L 48.0,36.0 L 42.0,36.0 L 37.0,39.0 L 35.0,38.0 L 34.0,37.0 L 33.0,35.0 Z M 47.0,26.0 L 50.0,29.0 L 46.0,30.0 Z M 65.0,27.0 L 66.0,25.0 L 70.0,26.0 L 72.0,28.0 L 69.0,30.0 L 67.0,29.0 Z M 63.0,25.0 L 65.0,27.0 L 64.0,32.0 L 63.0,29.0 L 61.0,27.0 Z M 81.0,24.0 L 81.0,25.0 L 80.0,26.0 L 77.0,28.0 L 77.0,24.0 L 78.0,23.0 Z M 43.0,23.0 L 38.0,25.0 L 38.0,22.0 L 40.0,21.0 Z M 82.0,19.0 L 85.0,20.0 L 85.0,24.0 L 82.0,25.0 L 81.0,21.0 Z M 58.0,16.0 L 58.0,19.0 L 62.0,23.0 L 61.0,25.0 L 59.0,27.0 L 59.0,28.0 L 58.0,29.0 L 56.0,30.0 L 52.0,30.0 L 50.0,29.0 L 47.0,25.0 L 45.0,24.0 L 46.0,21.0 L 50.0,18.0 L 53.0,17.0 Z M 70.0,13.0 L 74.0,13.0 L 78.0,17.0 L 78.0,22.0 L 75.0,25.0 L 73.0,26.0 L 70.0,26.0 L 68.0,25.0 L 67.0,24.0 L 66.0,18.0 L 66.0,16.0 L 68.0,14.0 Z M 111.0,9.0 L 113.0,13.0 L 113.0,15.0 L 112.0,17.0 L 105.0,18.0 L 103.0,19.0 L 101.0,21.0 L 100.0,24.0 L 98.0,27.0 L 95.0,30.0 L 87.0,29.0 L 92.0,28.0 L 95.0,26.0 L 96.0,24.0 L 96.0,22.0 L 98.0,19.0 L 100.0,17.0 L 104.0,16.0 L 106.0,15.0 L 107.0,14.0 L 108.0,12.0 L 108.0,7.0 L 110.0,8.0 Z M 83.0,7.0 L 95.0,7.0 L 97.0,9.0 L 100.0,16.0 L 95.0,16.0 L 94.0,19.0 L 91.0,20.0 L 86.0,20.0 L 84.0,19.0 L 82.0,17.0 L 82.0,10.0 Z M 116.0,5.0 L 119.0,8.0 L 119.0,13.0 L 117.0,15.0 L 116.0,12.0 L 117.0,10.0 L 115.0,7.0 Z M 64.0,11.0 L 67.0,5.0 L 69.0,5.0 L 72.0,7.0 L 74.0,9.0 L 71.0,12.0 L 67.0,12.0 Z M 102.0,3.0 L 104.0,5.0 L 102.0,7.0 L 100.0,7.0 L 98.0,9.0 L 97.0,7.0 Z" />
</svg>