<svg xmlns="http://www.w3.org/2000/svg" viewBox="0 0 1024 506" width="100%" height="100%" fill="currentColor">
    <path fill-rule="evenodd" d="M 862.0,443.0 L 863.0,445.0 L 865.0,448.0 L 866.0,451.0 L 866.0,447.0 L 868.0,445.0 L 869.0,443.0 L 867.0,444.0 L 866.0,446.0 Z M 852.0,443.0 L 852.0,451.0 L 857.0,451.0 L 859.0,449.0 L 859.0,445.0 L 857.0,443.0 Z M 854.0,444.0 L 856.0,444.0 L 858.0,446.0 L 857.0,450.0 L 853.0,449.0 Z M 844.0,451.0 L 847.0,451.0 L 849.0,449.0 L 848.0,443.0 L 847.0,450.0 L 845.0,450.0 L 843.0,448.0 L 843.0,443.0 L 842.0,449.0 Z M 826.0,444.0 L 827.0,447.0 L 828.0,447.0 L 830.0,449.0 L 825.0,450.0 L 831.0,450.0 L 830.0,447.0 L 829.0,447.0 L 827.0,445.0 L 830.0,443.0 Z M 814.0,443.0 L 814.0,451.0 L 819.0,450.0 L 816.0,447.0 L 819.0,447.0 L 816.0,444.0 L 819.0,443.0 Z M 810.0,443.0 L 806.0,444.0 L 806.0,447.0 L 808.0,447.0 L 810.0,449.0 L 805.0,450.0 L 809.0,451.0 L 811.0,449.0 L 810.0,447.0 L 807.0,445.0 Z M 798.0,444.0 L 797.0,446.0 L 797.0,448.0 L 795.0,451.0 L 798.0,449.0 L 800.0,449.0 L 803.0,451.0 L 802.0,448.0 L 800.0,443.0 Z M 788.0,443.0 L 786.0,445.0 L 786.0,449.0 L 788.0,451.0 L 793.0,450.0 L 789.0,450.0 L 787.0,448.0 L 787.0,446.0 L 789.0,444.0 L 793.0,444.0 Z M 773.0,443.0 L 773.0,451.0 L 778.0,451.0 L 780.0,449.0 L 780.0,445.0 L 778.0,443.0 Z M 775.0,444.0 L 777.0,444.0 L 779.0,446.0 L 779.0,448.0 L 777.0,450.0 L 774.0,449.0 Z M 765.0,444.0 L 764.0,446.0 L 762.0,451.0 L 764.0,451.0 L 765.0,449.0 L 767.0,449.0 L 770.0,451.0 L 769.0,448.0 L 767.0,443.0 Z M 754.0,443.0 L 754.0,451.0 L 760.0,450.0 L 755.0,449.0 L 757.0,447.0 L 759.0,447.0 L 756.0,444.0 L 760.0,443.0 Z M 746.0,443.0 L 746.0,451.0 L 747.0,448.0 L 751.0,451.0 L 749.0,448.0 L 751.0,446.0 L 750.0,443.0 Z M 522.0,439.0 L 524.0,442.0 L 525.0,444.0 L 526.0,447.0 L 526.0,443.0 L 528.0,441.0 L 529.0,439.0 L 527.0,439.0 L 525.0,441.0 Z M 512.0,439.0 L 512.0,447.0 L 517.0,447.0 L 519.0,445.0 L 519.0,441.0 L 517.0,439.0 Z M 514.0,440.0 L 516.0,440.0 L 518.0,442.0 L 518.0,444.0 L 516.0,446.0 L 513.0,445.0 Z M 504.0,447.0 L 507.0,447.0 L 509.0,445.0 L 509.0,439.0 L 507.0,439.0 L 505.0,446.0 L 503.0,444.0 L 503.0,439.0 L 502.0,445.0 Z M 499.0,439.0 L 493.0,440.0 L 495.0,441.0 L 495.0,447.0 L 497.0,447.0 L 496.0,441.0 Z M 486.0,439.0 L 486.0,443.0 L 487.0,443.0 L 489.0,445.0 L 485.0,446.0 L 491.0,446.0 L 490.0,443.0 L 489.0,443.0 L 487.0,441.0 L 490.0,439.0 Z M 473.0,439.0 L 473.0,447.0 L 479.0,446.0 L 476.0,443.0 L 479.0,443.0 L 476.0,440.0 L 479.0,439.0 Z M 470.0,439.0 L 465.0,440.0 L 466.0,443.0 L 467.0,443.0 L 469.0,445.0 L 465.0,446.0 L 469.0,447.0 L 471.0,445.0 L 470.0,443.0 L 467.0,441.0 Z M 458.0,439.0 L 457.0,441.0 L 457.0,443.0 L 455.0,447.0 L 458.0,445.0 L 460.0,445.0 L 461.0,447.0 L 463.0,447.0 L 462.0,444.0 L 460.0,439.0 Z M 448.0,439.0 L 446.0,441.0 L 446.0,445.0 L 448.0,447.0 L 453.0,446.0 L 449.0,446.0 L 447.0,444.0 L 447.0,442.0 L 449.0,440.0 L 453.0,440.0 Z M 433.0,439.0 L 433.0,447.0 L 437.0,447.0 L 439.0,446.0 L 440.0,441.0 L 438.0,439.0 Z M 435.0,440.0 L 437.0,440.0 L 439.0,442.0 L 439.0,444.0 L 437.0,446.0 L 434.0,445.0 Z M 425.0,439.0 L 422.0,447.0 L 425.0,445.0 L 427.0,445.0 L 430.0,447.0 L 428.0,441.0 L 427.0,439.0 Z M 414.0,439.0 L 414.0,447.0 L 420.0,446.0 L 415.0,445.0 L 417.0,443.0 L 419.0,443.0 L 417.0,443.0 L 415.0,441.0 L 420.0,439.0 Z M 405.0,439.0 L 406.0,447.0 L 407.0,444.0 L 411.0,447.0 L 409.0,444.0 L 411.0,442.0 L 410.0,439.0 Z M 754.0,393.0 L 750.0,394.0 L 750.0,397.0 L 753.0,400.0 L 750.0,399.0 L 754.0,399.0 Z M 751.0,393.0 L 754.0,394.0 L 753.0,397.0 L 750.0,396.0 Z M 91.0,391.0 L 90.0,393.0 L 90.0,395.0 L 89.0,397.0 L 94.0,397.0 L 93.0,394.0 L 92.0,393.0 Z M 79.0,391.0 L 78.0,392.0 L 77.0,394.0 L 76.0,397.0 L 81.0,397.0 L 79.0,393.0 Z M 411.0,390.0 L 411.0,393.0 L 415.0,393.0 L 414.0,389.0 Z M 412.0,389.0 L 415.0,390.0 L 414.0,393.0 L 411.0,392.0 Z M 402.0,387.0 L 401.0,389.0 L 399.0,389.0 L 397.0,392.0 L 395.0,389.0 L 396.0,391.0 L 396.0,395.0 L 397.0,393.0 L 398.0,390.0 L 402.0,390.0 L 402.0,393.0 L 403.0,389.0 Z M 949.0,357.0 L 949.0,361.0 L 953.0,359.0 L 952.0,357.0 Z M 188.0,358.0 L 189.0,361.0 L 192.0,363.0 L 192.0,357.0 Z M 189.0,357.0 L 192.0,358.0 L 191.0,361.0 L 188.0,360.0 Z M 142.0,357.0 L 138.0,357.0 L 137.0,359.0 L 138.0,361.0 L 142.0,362.0 L 138.0,363.0 L 140.0,364.0 L 142.0,362.0 Z M 855.0,355.0 L 855.0,361.0 L 858.0,358.0 L 858.0,361.0 L 858.0,357.0 Z M 116.0,355.0 L 116.0,361.0 L 117.0,358.0 L 121.0,357.0 L 123.0,361.0 L 126.0,361.0 L 127.0,359.0 L 125.0,357.0 L 122.0,358.0 L 120.0,355.0 L 120.0,358.0 L 116.0,357.0 Z M 122.0,360.0 L 123.0,357.0 L 125.0,357.0 L 127.0,359.0 L 125.0,361.0 Z M 944.0,354.0 L 942.0,357.0 L 943.0,361.0 L 946.0,358.0 L 946.0,361.0 L 946.0,354.0 Z M 592.0,354.0 L 592.0,357.0 L 596.0,356.0 L 595.0,353.0 Z M 593.0,353.0 L 596.0,354.0 L 595.0,357.0 L 592.0,356.0 Z M 400.0,354.0 L 401.0,357.0 L 405.0,357.0 L 405.0,353.0 Z M 403.0,353.0 L 405.0,355.0 L 403.0,357.0 L 400.0,355.0 Z M 502.0,351.0 L 500.0,353.0 L 499.0,355.0 L 499.0,357.0 L 502.0,355.0 L 504.0,357.0 L 502.0,353.0 Z M 480.0,351.0 L 480.0,357.0 L 485.0,356.0 L 490.0,356.0 L 489.0,353.0 L 485.0,354.0 L 484.0,357.0 L 480.0,356.0 Z M 488.0,353.0 L 490.0,355.0 L 487.0,357.0 L 485.0,355.0 Z M 419.0,351.0 L 418.0,354.0 L 417.0,355.0 L 416.0,357.0 L 418.0,355.0 L 420.0,355.0 L 422.0,357.0 L 421.0,354.0 L 420.0,353.0 Z M 586.0,350.0 L 589.0,352.0 L 589.0,357.0 L 591.0,350.0 Z M 576.0,350.0 L 574.0,350.0 L 574.0,357.0 L 575.0,354.0 L 578.0,354.0 L 578.0,351.0 Z M 521.0,350.0 L 519.0,350.0 L 519.0,357.0 L 520.0,354.0 L 523.0,353.0 L 523.0,351.0 Z M 511.0,350.0 L 513.0,351.0 L 511.0,350.0 L 509.0,354.0 L 509.0,357.0 L 514.0,357.0 L 510.0,353.0 Z M 492.0,350.0 L 492.0,357.0 L 495.0,355.0 L 496.0,357.0 L 495.0,355.0 L 496.0,351.0 L 495.0,354.0 L 492.0,353.0 L 494.0,350.0 Z M 471.0,351.0 L 470.0,353.0 L 470.0,355.0 L 472.0,357.0 L 477.0,357.0 L 476.0,351.0 Z M 474.0,350.0 L 477.0,353.0 L 477.0,355.0 L 475.0,357.0 L 471.0,356.0 L 470.0,354.0 L 471.0,352.0 Z M 427.0,350.0 L 429.0,351.0 L 428.0,353.0 L 429.0,357.0 L 426.0,357.0 L 430.0,357.0 L 430.0,350.0 Z M 237.0,292.0 L 240.0,294.0 L 236.0,295.0 L 237.0,297.0 L 242.0,297.0 L 240.0,291.0 Z M 206.0,291.0 L 204.0,291.0 L 202.0,293.0 L 202.0,295.0 L 204.0,297.0 L 207.0,296.0 L 204.0,297.0 L 202.0,295.0 L 207.0,294.0 Z M 148.0,291.0 L 146.0,291.0 L 144.0,293.0 L 144.0,295.0 L 146.0,297.0 L 149.0,296.0 L 146.0,297.0 L 144.0,295.0 L 149.0,294.0 Z M 85.0,291.0 L 83.0,291.0 L 81.0,293.0 L 81.0,295.0 L 83.0,297.0 L 86.0,296.0 L 83.0,297.0 L 81.0,295.0 L 86.0,294.0 Z M 69.0,291.0 L 68.0,293.0 L 68.0,295.0 L 71.0,297.0 L 68.0,295.0 L 68.0,293.0 L 70.0,291.0 L 72.0,291.0 L 73.0,299.0 L 70.0,299.0 L 74.0,298.0 L 74.0,292.0 L 72.0,291.0 Z M 64.0,289.0 L 62.0,291.0 L 64.0,292.0 L 65.0,297.0 L 66.0,291.0 Z M 221.0,288.0 L 218.0,296.0 L 219.0,294.0 L 224.0,295.0 L 224.0,297.0 L 224.0,295.0 L 223.0,294.0 Z M 187.0,288.0 L 185.0,289.0 L 185.0,296.0 L 187.0,297.0 L 189.0,297.0 L 191.0,295.0 L 191.0,290.0 L 189.0,288.0 Z M 187.0,288.0 L 189.0,288.0 L 191.0,290.0 L 191.0,295.0 L 189.0,297.0 L 187.0,297.0 L 185.0,295.0 L 185.0,290.0 Z M 43.0,288.0 L 40.0,288.0 L 40.0,296.0 L 41.0,293.0 L 43.0,293.0 L 45.0,290.0 Z M 41.0,288.0 L 43.0,288.0 L 45.0,291.0 L 43.0,293.0 L 40.0,292.0 Z M 113.0,270.0 L 111.0,270.0 L 109.0,272.0 L 109.0,274.0 L 111.0,276.0 L 114.0,275.0 L 111.0,276.0 L 109.0,274.0 L 114.0,273.0 Z M 50.0,270.0 L 48.0,270.0 L 46.0,272.0 L 46.0,274.0 L 48.0,276.0 L 51.0,275.0 L 48.0,276.0 L 46.0,274.0 L 51.0,273.0 Z M 189.0,268.0 L 187.0,270.0 L 189.0,271.0 L 190.0,276.0 L 191.0,270.0 Z M 445.0,267.0 L 446.0,272.0 L 448.0,272.0 L 450.0,271.0 L 449.0,266.0 Z M 446.0,266.0 L 448.0,266.0 L 450.0,268.0 L 450.0,270.0 L 447.0,272.0 L 445.0,270.0 Z M 428.0,267.0 L 431.0,269.0 L 428.0,269.0 L 429.0,272.0 L 433.0,272.0 L 432.0,270.0 L 432.0,266.0 Z M 381.0,266.0 L 380.0,270.0 L 380.0,271.0 L 384.0,271.0 L 385.0,274.0 L 385.0,266.0 Z M 379.0,269.0 L 380.0,267.0 L 383.0,266.0 L 385.0,268.0 L 385.0,270.0 L 382.0,272.0 Z M 437.0,264.0 L 435.0,266.0 L 437.0,267.0 L 437.0,272.0 L 439.0,272.0 L 437.0,271.0 L 439.0,266.0 Z M 560.0,245.0 L 559.0,247.0 L 556.0,248.0 L 556.0,250.0 L 561.0,250.0 Z M 611.0,245.0 L 609.0,244.0 L 607.0,245.0 L 607.0,250.0 L 610.0,250.0 L 608.0,250.0 L 606.0,248.0 L 612.0,247.0 Z M 497.0,244.0 L 495.0,245.0 L 496.0,250.0 L 500.0,249.0 L 496.0,247.0 L 500.0,247.0 L 499.0,245.0 L 499.0,247.0 L 495.0,246.0 Z M 484.0,244.0 L 486.0,246.0 L 483.0,247.0 L 481.0,249.0 L 487.0,250.0 L 486.0,245.0 Z M 406.0,244.0 L 408.0,246.0 L 404.0,250.0 L 409.0,250.0 L 408.0,246.0 Z M 603.0,242.0 L 602.0,245.0 L 600.0,244.0 L 598.0,245.0 L 599.0,250.0 L 603.0,250.0 Z M 601.0,244.0 L 603.0,246.0 L 602.0,250.0 L 598.0,249.0 L 598.0,246.0 Z M 612.0,224.0 L 611.0,226.0 L 608.0,227.0 L 608.0,229.0 L 613.0,229.0 L 613.0,226.0 Z M 599.0,224.0 L 598.0,226.0 L 595.0,227.0 L 595.0,229.0 L 600.0,229.0 Z M 470.0,224.0 L 469.0,226.0 L 466.0,227.0 L 466.0,229.0 L 471.0,229.0 Z M 496.0,223.0 L 494.0,224.0 L 495.0,229.0 L 499.0,228.0 L 495.0,226.0 L 499.0,226.0 L 498.0,224.0 L 498.0,226.0 L 494.0,225.0 Z M 422.0,224.0 L 424.0,223.0 L 426.0,225.0 L 422.0,227.0 L 422.0,229.0 L 427.0,229.0 L 426.0,224.0 L 424.0,223.0 Z M 403.0,223.0 L 401.0,224.0 L 402.0,229.0 L 406.0,228.0 L 402.0,226.0 L 406.0,226.0 L 405.0,224.0 L 405.0,226.0 L 401.0,225.0 Z M 592.0,221.0 L 591.0,224.0 L 589.0,223.0 L 587.0,224.0 L 586.0,227.0 L 587.0,229.0 L 592.0,229.0 Z M 589.0,223.0 L 592.0,227.0 L 590.0,229.0 L 588.0,229.0 L 586.0,226.0 Z M 449.0,221.0 L 445.0,221.0 L 445.0,229.0 L 446.0,225.0 L 450.0,224.0 Z M 446.0,221.0 L 450.0,222.0 L 449.0,225.0 L 445.0,224.0 Z M 438.0,221.0 L 437.0,223.0 L 437.0,226.0 L 436.0,227.0 L 436.0,229.0 L 437.0,227.0 L 442.0,229.0 L 441.0,225.0 Z M 439.0,221.0 L 440.0,224.0 L 440.0,227.0 L 437.0,226.0 L 437.0,224.0 L 438.0,223.0 Z M 894.0,207.0 L 894.0,211.0 L 898.0,211.0 L 896.0,212.0 L 894.0,210.0 L 899.0,209.0 L 898.0,206.0 Z M 836.0,207.0 L 836.0,211.0 L 839.0,212.0 L 841.0,211.0 L 840.0,206.0 Z M 837.0,206.0 L 841.0,207.0 L 841.0,210.0 L 838.0,212.0 L 836.0,210.0 Z M 720.0,207.0 L 723.0,209.0 L 720.0,209.0 L 724.0,210.0 L 720.0,211.0 L 722.0,212.0 L 724.0,211.0 L 723.0,206.0 Z M 149.0,206.0 L 147.0,206.0 L 145.0,208.0 L 145.0,210.0 L 147.0,212.0 L 150.0,211.0 L 147.0,212.0 L 145.0,210.0 L 150.0,209.0 Z M 910.0,204.0 L 908.0,206.0 L 910.0,207.0 L 910.0,211.0 L 912.0,206.0 Z M 812.0,204.0 L 810.0,206.0 L 812.0,207.0 L 812.0,211.0 L 814.0,206.0 Z M 756.0,204.0 L 754.0,206.0 L 756.0,207.0 L 756.0,211.0 L 758.0,206.0 Z M 218.0,204.0 L 217.0,206.0 L 219.0,211.0 L 220.0,206.0 Z M 573.0,203.0 L 573.0,206.0 L 575.0,208.0 L 578.0,207.0 L 578.0,206.0 L 579.0,204.0 L 577.0,202.0 Z M 575.0,202.0 L 578.0,203.0 L 579.0,205.0 L 575.0,208.0 L 573.0,206.0 L 573.0,204.0 Z M 562.0,203.0 L 562.0,207.0 L 566.0,207.0 L 564.0,208.0 L 562.0,206.0 L 567.0,205.0 L 566.0,202.0 Z M 538.0,203.0 L 541.0,205.0 L 538.0,205.0 L 540.0,208.0 L 538.0,206.0 L 541.0,205.0 L 543.0,207.0 L 543.0,204.0 L 542.0,202.0 Z M 524.0,203.0 L 524.0,207.0 L 528.0,207.0 L 526.0,208.0 L 524.0,206.0 L 529.0,205.0 L 528.0,202.0 Z M 501.0,203.0 L 500.0,205.0 L 501.0,207.0 L 505.0,207.0 L 503.0,208.0 L 501.0,206.0 L 506.0,205.0 L 505.0,202.0 Z M 488.0,203.0 L 491.0,205.0 L 487.0,206.0 L 491.0,207.0 L 493.0,208.0 L 492.0,206.0 L 491.0,202.0 Z M 428.0,203.0 L 428.0,207.0 L 431.0,208.0 L 433.0,207.0 L 432.0,202.0 Z M 429.0,202.0 L 433.0,203.0 L 433.0,206.0 L 430.0,208.0 L 428.0,206.0 Z M 398.0,202.0 L 396.0,202.0 L 394.0,204.0 L 394.0,206.0 L 396.0,208.0 L 399.0,207.0 L 396.0,207.0 L 394.0,206.0 L 400.0,204.0 Z M 384.0,202.0 L 381.0,202.0 L 379.0,205.0 L 380.0,207.0 L 384.0,207.0 L 382.0,208.0 L 380.0,206.0 L 385.0,204.0 Z M 496.0,200.0 L 494.0,202.0 L 496.0,203.0 L 496.0,207.0 L 498.0,208.0 L 496.0,206.0 L 498.0,202.0 Z M 420.0,200.0 L 418.0,202.0 L 420.0,203.0 L 421.0,208.0 L 422.0,202.0 Z M 909.0,186.0 L 912.0,188.0 L 909.0,191.0 L 911.0,191.0 L 913.0,190.0 L 912.0,185.0 Z M 895.0,186.0 L 895.0,190.0 L 896.0,188.0 L 900.0,188.0 L 899.0,185.0 Z M 763.0,186.0 L 763.0,188.0 L 768.0,188.0 L 766.0,185.0 Z M 238.0,185.0 L 236.0,185.0 L 234.0,187.0 L 234.0,189.0 L 236.0,191.0 L 239.0,190.0 L 236.0,191.0 L 234.0,189.0 L 239.0,188.0 Z M 130.0,186.0 L 133.0,188.0 L 129.0,189.0 L 135.0,191.0 L 133.0,185.0 Z M 122.0,185.0 L 118.0,185.0 L 118.0,193.0 L 119.0,190.0 L 122.0,191.0 L 124.0,189.0 L 124.0,187.0 Z M 120.0,185.0 L 122.0,185.0 L 124.0,187.0 L 124.0,189.0 L 122.0,191.0 L 120.0,191.0 L 118.0,189.0 L 118.0,187.0 Z M 107.0,186.0 L 108.0,191.0 L 111.0,190.0 L 108.0,188.0 L 112.0,188.0 L 110.0,185.0 Z M 83.0,186.0 L 84.0,191.0 L 87.0,190.0 L 84.0,188.0 L 88.0,188.0 L 86.0,185.0 Z M 904.0,183.0 L 902.0,185.0 L 904.0,186.0 L 905.0,191.0 L 906.0,185.0 Z M 810.0,182.0 L 808.0,183.0 L 808.0,184.0 L 806.0,185.0 L 808.0,186.0 L 808.0,190.0 L 810.0,185.0 Z M 180.0,182.0 L 180.0,190.0 L 181.0,187.0 L 185.0,188.0 L 185.0,191.0 L 184.0,187.0 L 185.0,183.0 L 183.0,182.0 Z M 181.0,182.0 L 183.0,182.0 L 185.0,184.0 L 184.0,187.0 L 180.0,186.0 Z M 146.0,182.0 L 144.0,183.0 L 144.0,184.0 L 142.0,185.0 L 144.0,186.0 L 144.0,191.0 L 146.0,185.0 Z M 612.0,182.0 L 615.0,184.0 L 612.0,184.0 L 613.0,187.0 L 617.0,187.0 L 616.0,185.0 L 616.0,181.0 Z M 596.0,182.0 L 596.0,185.0 L 598.0,187.0 L 601.0,186.0 L 601.0,185.0 L 602.0,183.0 L 600.0,181.0 Z M 598.0,181.0 L 601.0,182.0 L 602.0,184.0 L 598.0,187.0 L 596.0,185.0 L 596.0,183.0 Z M 576.0,182.0 L 576.0,185.0 L 578.0,187.0 L 581.0,186.0 L 582.0,184.0 L 581.0,182.0 Z M 578.0,181.0 L 581.0,182.0 L 582.0,184.0 L 578.0,187.0 L 576.0,185.0 L 576.0,183.0 Z M 551.0,182.0 L 552.0,187.0 L 555.0,186.0 L 553.0,187.0 L 551.0,185.0 L 556.0,184.0 L 555.0,181.0 Z M 517.0,182.0 L 514.0,181.0 L 512.0,181.0 L 512.0,189.0 L 513.0,186.0 L 517.0,186.0 L 518.0,184.0 Z M 514.0,181.0 L 517.0,182.0 L 517.0,185.0 L 514.0,187.0 L 512.0,185.0 L 512.0,183.0 Z M 505.0,181.0 L 504.0,185.0 L 504.0,186.0 L 507.0,187.0 L 509.0,185.0 L 508.0,181.0 Z M 503.0,184.0 L 504.0,182.0 L 507.0,181.0 L 509.0,183.0 L 509.0,185.0 L 506.0,187.0 Z M 481.0,182.0 L 481.0,186.0 L 486.0,186.0 L 483.0,187.0 L 481.0,185.0 L 486.0,184.0 L 485.0,181.0 Z M 434.0,181.0 L 433.0,183.0 L 433.0,185.0 L 435.0,187.0 L 437.0,187.0 L 439.0,185.0 L 439.0,183.0 L 438.0,181.0 Z M 435.0,181.0 L 437.0,181.0 L 439.0,183.0 L 439.0,185.0 L 437.0,187.0 L 435.0,187.0 L 433.0,185.0 L 433.0,183.0 Z M 417.0,182.0 L 420.0,184.0 L 417.0,184.0 L 420.0,186.0 L 422.0,187.0 L 421.0,185.0 L 420.0,181.0 Z M 404.0,182.0 L 404.0,185.0 L 406.0,187.0 L 409.0,186.0 L 406.0,187.0 L 404.0,185.0 L 409.0,184.0 L 408.0,181.0 Z M 388.0,182.0 L 388.0,185.0 L 390.0,187.0 L 393.0,186.0 L 390.0,187.0 L 388.0,185.0 L 393.0,184.0 L 392.0,181.0 Z M 381.0,181.0 L 379.0,184.0 L 380.0,186.0 L 382.0,187.0 L 384.0,186.0 L 384.0,189.0 L 381.0,189.0 L 385.0,189.0 L 385.0,181.0 Z M 381.0,181.0 L 383.0,181.0 L 385.0,183.0 L 385.0,185.0 L 382.0,187.0 L 379.0,183.0 Z M 522.0,179.0 L 520.0,181.0 L 523.0,187.0 L 524.0,181.0 Z M 477.0,179.0 L 475.0,181.0 L 476.0,185.0 L 478.0,187.0 L 479.0,181.0 Z M 574.0,178.0 L 572.0,178.0 L 570.0,181.0 L 572.0,182.0 L 572.0,187.0 L 574.0,181.0 Z M 526.0,160.0 L 526.0,163.0 L 527.0,165.0 L 530.0,168.0 L 527.0,168.0 L 531.0,168.0 L 531.0,160.0 L 530.0,165.0 L 528.0,165.0 L 526.0,163.0 Z M 593.0,161.0 L 594.0,165.0 L 598.0,164.0 L 595.0,165.0 L 593.0,163.0 L 598.0,162.0 L 598.0,160.0 L 596.0,159.0 Z M 581.0,160.0 L 579.0,159.0 L 577.0,160.0 L 576.0,163.0 L 577.0,165.0 L 581.0,165.0 L 582.0,163.0 Z M 579.0,159.0 L 582.0,163.0 L 580.0,165.0 L 578.0,165.0 L 576.0,163.0 L 577.0,160.0 Z M 549.0,160.0 L 550.0,165.0 L 554.0,164.0 L 554.0,161.0 L 552.0,159.0 Z M 552.0,159.0 L 554.0,161.0 L 553.0,165.0 L 549.0,164.0 L 549.0,161.0 Z M 495.0,159.0 L 492.0,161.0 L 493.0,165.0 L 497.0,164.0 L 497.0,168.0 L 493.0,168.0 L 498.0,167.0 L 498.0,160.0 Z M 495.0,159.0 L 498.0,163.0 L 496.0,165.0 L 494.0,165.0 L 492.0,163.0 L 492.0,161.0 Z M 451.0,159.0 L 448.0,161.0 L 449.0,165.0 L 452.0,168.0 L 449.0,168.0 L 453.0,168.0 L 453.0,160.0 Z M 451.0,159.0 L 453.0,161.0 L 452.0,165.0 L 450.0,165.0 L 448.0,163.0 L 448.0,161.0 Z M 427.0,161.0 L 428.0,165.0 L 432.0,164.0 L 429.0,165.0 L 427.0,163.0 L 432.0,162.0 L 432.0,160.0 L 430.0,159.0 Z M 403.0,160.0 L 401.0,159.0 L 399.0,160.0 L 398.0,163.0 L 399.0,165.0 L 402.0,165.0 L 400.0,165.0 L 398.0,163.0 L 404.0,162.0 Z M 523.0,157.0 L 518.0,157.0 L 519.0,165.0 L 520.0,161.0 L 524.0,160.0 Z M 520.0,157.0 L 524.0,158.0 L 523.0,161.0 L 519.0,160.0 Z M 381.0,158.0 L 380.0,163.0 L 379.0,165.0 L 381.0,163.0 L 384.0,163.0 L 386.0,165.0 L 384.0,159.0 L 383.0,157.0 Z M 382.0,157.0 L 383.0,159.0 L 384.0,160.0 L 382.0,163.0 L 380.0,161.0 Z M 903.0,128.0 L 903.0,136.0 L 906.0,136.0 L 909.0,131.0 L 909.0,136.0 L 912.0,136.0 L 913.0,133.0 L 916.0,136.0 L 921.0,135.0 L 917.0,132.0 L 922.0,132.0 L 922.0,130.0 L 920.0,128.0 L 915.0,128.0 L 914.0,130.0 L 911.0,130.0 L 910.0,128.0 Z M 899.0,128.0 L 899.0,136.0 L 901.0,136.0 L 901.0,128.0 Z M 890.0,128.0 L 886.0,128.0 L 884.0,129.0 L 884.0,134.0 L 886.0,136.0 L 890.0,134.0 L 888.0,135.0 L 886.0,133.0 L 892.0,132.0 L 892.0,130.0 Z M 880.0,128.0 L 873.0,128.0 L 873.0,140.0 L 875.0,140.0 L 876.0,136.0 L 880.0,136.0 L 882.0,134.0 L 882.0,130.0 Z M 875.0,132.0 L 877.0,130.0 L 880.0,131.0 L 879.0,134.0 L 877.0,134.0 Z M 868.0,128.0 L 868.0,136.0 L 871.0,136.0 L 871.0,128.0 Z M 843.0,128.0 L 843.0,136.0 L 845.0,136.0 L 846.0,130.0 L 849.0,131.0 L 849.0,136.0 L 851.0,136.0 L 850.0,128.0 Z M 832.0,131.0 L 832.0,133.0 L 833.0,135.0 L 835.0,136.0 L 839.0,136.0 L 841.0,134.0 L 841.0,130.0 L 839.0,128.0 L 833.0,129.0 Z M 834.0,132.0 L 836.0,130.0 L 839.0,131.0 L 838.0,134.0 L 836.0,134.0 Z M 828.0,128.0 L 828.0,136.0 L 830.0,136.0 L 830.0,128.0 Z M 807.0,128.0 L 807.0,136.0 L 809.0,136.0 L 809.0,128.0 Z M 745.0,131.0 L 745.0,133.0 L 746.0,135.0 L 753.0,135.0 L 749.0,132.0 L 755.0,130.0 L 756.0,132.0 L 758.0,133.0 L 755.0,135.0 L 762.0,135.0 L 762.0,133.0 L 760.0,131.0 L 762.0,129.0 L 757.0,128.0 L 754.0,131.0 L 752.0,128.0 L 746.0,129.0 Z M 86.0,129.0 L 85.0,131.0 L 85.0,133.0 L 86.0,135.0 L 94.0,136.0 L 94.0,128.0 Z M 89.0,130.0 L 92.0,131.0 L 91.0,134.0 L 88.0,133.0 Z M 48.0,131.0 L 48.0,133.0 L 49.0,135.0 L 51.0,136.0 L 55.0,136.0 L 57.0,134.0 L 57.0,130.0 L 55.0,128.0 L 49.0,129.0 Z M 50.0,132.0 L 52.0,130.0 L 55.0,131.0 L 54.0,134.0 L 52.0,134.0 Z M 864.0,124.0 L 857.0,124.0 L 857.0,136.0 L 859.0,136.0 L 860.0,131.0 L 866.0,130.0 L 866.0,126.0 Z M 862.0,125.0 L 864.0,128.0 L 862.0,130.0 L 859.0,129.0 L 859.0,127.0 Z M 824.0,124.0 L 822.0,124.0 L 821.0,128.0 L 819.0,129.0 L 814.0,128.0 L 812.0,129.0 L 811.0,131.0 L 811.0,133.0 L 812.0,135.0 L 814.0,136.0 L 819.0,135.0 L 815.0,134.0 L 813.0,132.0 L 815.0,130.0 L 819.0,129.0 L 821.0,130.0 L 822.0,136.0 L 824.0,136.0 L 824.0,131.0 L 826.0,130.0 L 826.0,128.0 L 824.0,127.0 Z M 775.0,124.0 L 768.0,124.0 L 768.0,136.0 L 770.0,136.0 L 771.0,131.0 L 775.0,131.0 L 777.0,129.0 L 777.0,126.0 Z M 775.0,128.0 L 773.0,130.0 L 770.0,129.0 L 773.0,126.0 L 774.0,126.0 Z M 720.0,125.0 L 721.0,130.0 L 724.0,131.0 L 726.0,133.0 L 719.0,135.0 L 721.0,136.0 L 726.0,136.0 L 728.0,134.0 L 729.0,132.0 L 730.0,135.0 L 732.0,136.0 L 738.0,136.0 L 738.0,128.0 L 730.0,129.0 L 729.0,132.0 L 726.0,129.0 L 724.0,129.0 L 722.0,127.0 L 724.0,125.0 L 728.0,125.0 Z M 733.0,130.0 L 736.0,131.0 L 735.0,134.0 L 732.0,133.0 Z M 576.0,124.0 L 570.0,124.0 L 570.0,132.0 L 572.0,132.0 L 572.0,127.0 L 574.0,125.0 Z M 534.0,124.0 L 534.0,132.0 L 536.0,132.0 L 536.0,127.0 L 538.0,125.0 L 540.0,125.0 L 541.0,129.0 L 542.0,131.0 L 550.0,132.0 L 550.0,124.0 L 543.0,124.0 L 541.0,126.0 Z M 546.0,125.0 L 548.0,127.0 L 547.0,130.0 L 543.0,129.0 L 543.0,127.0 Z M 530.0,124.0 L 526.0,124.0 L 524.0,125.0 L 524.0,130.0 L 526.0,132.0 L 530.0,130.0 L 528.0,131.0 L 526.0,129.0 L 532.0,128.0 L 532.0,126.0 Z M 514.0,124.0 L 514.0,132.0 L 516.0,132.0 L 518.0,125.0 L 520.0,127.0 L 520.0,132.0 L 522.0,132.0 L 522.0,126.0 L 520.0,124.0 Z M 482.0,124.0 L 478.0,124.0 L 476.0,125.0 L 475.0,128.0 L 476.0,130.0 L 478.0,132.0 L 482.0,130.0 L 480.0,131.0 L 478.0,129.0 L 484.0,128.0 L 484.0,126.0 Z M 454.0,127.0 L 454.0,129.0 L 455.0,131.0 L 457.0,132.0 L 461.0,132.0 L 463.0,130.0 L 463.0,126.0 L 461.0,124.0 L 455.0,125.0 Z M 459.0,125.0 L 461.0,127.0 L 460.0,130.0 L 458.0,130.0 L 457.0,126.0 Z M 429.0,124.0 L 429.0,132.0 L 431.0,132.0 L 434.0,126.0 L 434.0,132.0 L 436.0,132.0 L 435.0,124.0 Z M 420.0,124.0 L 418.0,126.0 L 418.0,130.0 L 420.0,132.0 L 424.0,132.0 L 426.0,130.0 L 427.0,128.0 L 426.0,126.0 L 424.0,124.0 Z M 422.0,125.0 L 424.0,127.0 L 423.0,130.0 L 420.0,129.0 L 420.0,127.0 Z M 140.0,124.0 L 140.0,136.0 L 142.0,136.0 L 142.0,124.0 Z M 130.0,125.0 L 130.0,127.0 L 128.0,132.0 L 126.0,136.0 L 128.0,136.0 L 130.0,134.0 L 134.0,134.0 L 135.0,136.0 L 138.0,136.0 L 137.0,133.0 L 135.0,130.0 L 133.0,124.0 Z M 70.0,124.0 L 70.0,136.0 L 73.0,136.0 L 74.0,131.0 L 76.0,133.0 L 78.0,133.0 L 80.0,130.0 L 81.0,136.0 L 83.0,136.0 L 83.0,124.0 L 81.0,124.0 L 79.0,128.0 L 75.0,129.0 L 74.0,126.0 L 72.0,124.0 Z M 46.0,124.0 L 44.0,124.0 L 43.0,134.0 L 40.0,133.0 L 40.0,136.0 L 44.0,136.0 L 46.0,134.0 Z M 894.0,123.0 L 894.0,136.0 L 896.0,136.0 L 896.0,123.0 Z M 803.0,123.0 L 802.0,128.0 L 798.0,128.0 L 795.0,131.0 L 793.0,128.0 L 788.0,128.0 L 786.0,130.0 L 779.0,128.0 L 779.0,136.0 L 781.0,136.0 L 782.0,130.0 L 785.0,129.0 L 786.0,134.0 L 788.0,136.0 L 794.0,135.0 L 790.0,135.0 L 788.0,133.0 L 796.0,133.0 L 798.0,136.0 L 805.0,136.0 Z M 798.0,133.0 L 799.0,130.0 L 801.0,130.0 L 803.0,132.0 L 801.0,134.0 Z M 743.0,123.0 L 741.0,124.0 L 741.0,136.0 L 743.0,136.0 Z M 121.0,130.0 L 119.0,128.0 L 115.0,127.0 L 114.0,123.0 L 112.0,124.0 L 111.0,129.0 L 105.0,128.0 L 103.0,131.0 L 102.0,128.0 L 100.0,127.0 L 100.0,124.0 L 98.0,124.0 L 98.0,127.0 L 96.0,128.0 L 96.0,130.0 L 98.0,131.0 L 98.0,136.0 L 100.0,136.0 L 103.0,131.0 L 103.0,133.0 L 104.0,135.0 L 111.0,135.0 L 115.0,136.0 L 118.0,131.0 L 118.0,136.0 L 121.0,136.0 Z M 111.0,129.0 L 111.0,135.0 L 106.0,133.0 L 107.0,130.0 Z M 61.0,123.0 L 59.0,124.0 L 59.0,136.0 L 66.0,136.0 L 68.0,134.0 L 68.0,130.0 L 66.0,128.0 L 61.0,127.0 Z M 61.0,132.0 L 63.0,130.0 L 66.0,131.0 L 65.0,134.0 L 63.0,134.0 Z M 554.0,120.0 L 554.0,123.0 L 552.0,124.0 L 554.0,127.0 L 554.0,132.0 L 556.0,132.0 L 559.0,126.0 L 559.0,130.0 L 561.0,132.0 L 565.0,132.0 L 567.0,131.0 L 568.0,129.0 L 568.0,127.0 L 567.0,125.0 L 561.0,124.0 L 559.0,126.0 L 558.0,124.0 L 556.0,123.0 L 556.0,120.0 Z M 564.0,125.0 L 566.0,128.0 L 564.0,130.0 L 561.0,129.0 L 561.0,127.0 Z M 489.0,124.0 L 489.0,128.0 L 490.0,130.0 L 491.0,131.0 L 493.0,132.0 L 498.0,132.0 L 501.0,129.0 L 502.0,126.0 L 503.0,129.0 L 504.0,131.0 L 506.0,132.0 L 511.0,131.0 L 507.0,131.0 L 505.0,129.0 L 512.0,128.0 L 511.0,126.0 L 511.0,125.0 L 505.0,124.0 L 503.0,127.0 L 501.0,125.0 L 496.0,125.0 L 496.0,127.0 L 499.0,128.0 L 497.0,130.0 L 494.0,130.0 L 491.0,127.0 L 491.0,125.0 L 492.0,123.0 L 493.0,122.0 L 494.0,122.0 L 496.0,121.0 L 499.0,123.0 L 500.0,121.0 L 498.0,120.0 L 493.0,120.0 L 491.0,121.0 L 490.0,122.0 Z M 445.0,120.0 L 443.0,122.0 L 442.0,124.0 L 442.0,128.0 L 443.0,130.0 L 444.0,131.0 L 446.0,132.0 L 453.0,131.0 L 451.0,129.0 L 447.0,130.0 L 444.0,127.0 L 444.0,125.0 L 445.0,123.0 L 446.0,122.0 L 450.0,122.0 L 453.0,121.0 L 451.0,120.0 Z M 380.0,120.0 L 380.0,132.0 L 382.0,132.0 L 383.0,127.0 L 387.0,127.0 L 388.0,125.0 L 391.0,125.0 L 391.0,127.0 L 393.0,130.0 L 392.0,134.0 L 392.0,136.0 L 394.0,135.0 L 396.0,131.0 L 396.0,129.0 L 399.0,124.0 L 402.0,127.0 L 402.0,132.0 L 404.0,132.0 L 404.0,126.0 L 406.0,124.0 L 404.0,123.0 L 404.0,120.0 L 402.0,120.0 L 401.0,124.0 L 396.0,124.0 L 396.0,126.0 L 394.0,128.0 L 392.0,124.0 L 390.0,124.0 L 388.0,122.0 L 388.0,121.0 Z M 383.0,121.0 L 385.0,121.0 L 387.0,124.0 L 385.0,126.0 L 382.0,125.0 Z M 473.0,119.0 L 471.0,120.0 L 470.0,124.0 L 467.0,124.0 L 465.0,126.0 L 465.0,130.0 L 467.0,132.0 L 473.0,132.0 Z M 469.0,125.0 L 471.0,127.0 L 470.0,130.0 L 467.0,129.0 L 467.0,127.0 Z M 408.0,119.0 L 408.0,132.0 L 410.0,132.0 L 412.0,125.0 L 414.0,127.0 L 414.0,132.0 L 416.0,132.0 L 416.0,126.0 L 414.0,124.0 L 410.0,123.0 Z M 277.0,64.0 L 278.0,77.0 L 291.0,77.0 L 292.0,75.0 L 291.0,71.0 L 290.0,76.0 L 278.0,75.0 L 279.0,64.0 L 283.0,63.0 Z M 962.0,62.0 L 958.0,66.0 L 958.0,72.0 L 959.0,74.0 L 961.0,76.0 L 963.0,76.0 L 960.0,74.0 L 963.0,73.0 L 960.0,71.0 L 959.0,69.0 L 962.0,64.0 L 969.0,64.0 L 971.0,66.0 L 971.0,71.0 L 968.0,73.0 L 968.0,76.0 L 971.0,75.0 L 973.0,71.0 L 973.0,68.0 L 972.0,65.0 L 970.0,63.0 L 968.0,62.0 Z M 293.0,62.0 L 288.0,62.0 L 287.0,67.0 L 286.0,68.0 L 285.0,68.0 L 284.0,71.0 L 290.0,65.0 L 292.0,67.0 Z M 260.0,63.0 L 258.0,65.0 L 257.0,68.0 L 257.0,71.0 L 259.0,75.0 L 262.0,75.0 L 260.0,72.0 L 262.0,73.0 L 259.0,71.0 L 259.0,68.0 L 261.0,64.0 L 270.0,65.0 L 271.0,70.0 L 267.0,73.0 L 267.0,76.0 L 269.0,76.0 L 272.0,73.0 L 272.0,66.0 L 269.0,63.0 L 267.0,62.0 L 262.0,62.0 Z M 620.0,59.0 L 619.0,60.0 L 617.0,64.0 L 617.0,66.0 L 618.0,69.0 L 621.0,72.0 L 623.0,71.0 L 620.0,70.0 L 623.0,69.0 L 620.0,67.0 L 620.0,63.0 L 622.0,60.0 L 629.0,60.0 L 630.0,63.0 L 631.0,64.0 L 631.0,66.0 L 627.0,69.0 L 628.0,72.0 L 631.0,71.0 L 633.0,67.0 L 633.0,63.0 L 632.0,61.0 L 630.0,59.0 L 628.0,58.0 L 622.0,58.0 Z M 720.0,55.0 L 720.0,83.0 L 722.0,84.0 L 748.0,84.0 L 750.0,82.0 L 752.0,79.0 L 755.0,74.0 L 757.0,70.0 L 757.0,68.0 L 726.0,69.0 L 726.0,70.0 L 722.0,76.0 L 722.0,57.0 L 732.0,57.0 L 736.0,61.0 L 748.0,62.0 L 748.0,64.0 L 750.0,64.0 L 749.0,59.0 L 738.0,59.0 L 736.0,58.0 L 733.0,55.0 L 731.0,54.0 L 722.0,54.0 Z M 381.0,50.0 L 379.0,52.0 L 379.0,78.0 L 381.0,80.0 L 408.0,80.0 L 410.0,78.0 L 412.0,75.0 L 417.0,66.0 L 416.0,63.0 L 386.0,64.0 L 385.0,67.0 L 382.0,71.0 L 382.0,53.0 L 391.0,53.0 L 394.0,56.0 L 396.0,57.0 L 408.0,58.0 L 408.0,60.0 L 410.0,60.0 L 409.0,55.0 L 398.0,55.0 L 396.0,54.0 L 392.0,50.0 Z" />
</svg>