<svg xmlns="http://www.w3.org/2000/svg" viewBox="0 0 98 113" width="100%" height="100%" fill="currentColor">
    <path fill-rule="evenodd" d="M 56.0,100.0 L 53.0,101.0 L 53.0,103.0 L 51.0,105.0 L 49.0,106.0 L 45.0,105.0 L 45.0,102.0 L 43.0,102.0 L 42.0,101.0 L 40.0,101.0 L 40.0,103.0 L 42.0,105.0 L 45.0,107.0 L 51.0,107.0 L 53.0,106.0 L 55.0,104.0 L 56.0,102.0 Z M 38.0,79.0 L 39.0,81.0 L 38.0,83.0 L 39.0,85.0 L 41.0,87.0 L 41.0,79.0 Z M 59.0,79.0 L 56.0,78.0 L 52.0,80.0 L 49.0,83.0 L 45.0,82.0 L 44.0,84.0 L 43.0,87.0 L 45.0,92.0 L 45.0,96.0 L 46.0,98.0 L 49.0,100.0 L 51.0,99.0 L 52.0,97.0 L 52.0,93.0 L 53.0,90.0 L 55.0,86.0 L 58.0,84.0 Z M 50.0,65.0 L 48.0,65.0 L 33.0,67.0 L 33.0,70.0 L 34.0,71.0 L 35.0,73.0 L 36.0,70.0 L 46.0,68.0 L 48.0,70.0 L 49.0,73.0 Z M 13.0,8.0 L 13.0,15.0 L 15.0,18.0 L 14.0,22.0 L 15.0,27.0 L 16.0,30.0 L 18.0,32.0 L 21.0,33.0 L 21.0,37.0 L 16.0,41.0 L 16.0,43.0 L 13.0,51.0 L 13.0,53.0 L 11.0,55.0 L 11.0,57.0 L 12.0,58.0 L 13.0,62.0 L 15.0,63.0 L 15.0,67.0 L 18.0,70.0 L 24.0,70.0 L 26.0,73.0 L 29.0,69.0 L 30.0,67.0 L 30.0,63.0 L 32.0,60.0 L 29.0,56.0 L 29.0,54.0 L 30.0,52.0 L 32.0,51.0 L 37.0,52.0 L 39.0,51.0 L 38.0,49.0 L 40.0,47.0 L 42.0,51.0 L 44.0,53.0 L 44.0,55.0 L 43.0,57.0 L 42.0,58.0 L 36.0,61.0 L 43.0,62.0 L 50.0,61.0 L 52.0,59.0 L 55.0,58.0 L 57.0,60.0 L 57.0,63.0 L 59.0,66.0 L 62.0,77.0 L 62.0,80.0 L 61.0,81.0 L 60.0,86.0 L 60.0,92.0 L 58.0,96.0 L 58.0,103.0 L 61.0,101.0 L 61.0,96.0 L 63.0,87.0 L 64.0,85.0 L 67.0,82.0 L 68.0,80.0 L 64.0,78.0 L 65.0,69.0 L 68.0,72.0 L 73.0,72.0 L 76.0,69.0 L 79.0,69.0 L 84.0,65.0 L 90.0,64.0 L 90.0,63.0 L 92.0,61.0 L 93.0,58.0 L 91.0,55.0 L 92.0,50.0 L 90.0,48.0 L 90.0,46.0 L 89.0,44.0 L 90.0,39.0 L 88.0,37.0 L 87.0,34.0 L 85.0,34.0 L 84.0,33.0 L 79.0,32.0 L 83.0,29.0 L 85.0,25.0 L 85.0,21.0 L 83.0,19.0 L 83.0,17.0 L 84.0,15.0 L 83.0,5.0 L 82.0,4.0 L 81.0,2.0 L 77.0,5.0 L 75.0,7.0 L 74.0,10.0 L 73.0,11.0 L 71.0,12.0 L 69.0,12.0 L 66.0,15.0 L 63.0,17.0 L 60.0,15.0 L 57.0,16.0 L 44.0,15.0 L 39.0,17.0 L 36.0,16.0 L 34.0,18.0 L 32.0,19.0 L 30.0,17.0 L 28.0,17.0 L 26.0,15.0 L 24.0,15.0 L 22.0,13.0 L 21.0,13.0 L 17.0,8.0 Z M 25.0,52.0 L 27.0,58.0 L 26.0,61.0 L 24.0,57.0 Z M 56.0,49.0 L 58.0,51.0 L 57.0,58.0 L 53.0,56.0 Z M 38.0,44.0 L 37.0,46.0 L 36.0,47.0 L 34.0,48.0 L 31.0,49.0 L 26.0,51.0 L 28.0,48.0 L 26.0,46.0 L 27.0,40.0 L 31.0,39.0 L 34.0,43.0 Z M 24.0,39.0 L 23.0,44.0 L 20.0,47.0 L 20.0,53.0 L 19.0,56.0 L 16.0,55.0 L 16.0,49.0 L 17.0,46.0 L 19.0,44.0 L 21.0,43.0 L 20.0,39.0 Z M 44.0,38.0 L 43.0,44.0 L 42.0,45.0 L 41.0,47.0 L 40.0,44.0 Z M 50.0,42.0 L 53.0,41.0 L 56.0,41.0 L 59.0,38.0 L 61.0,37.0 L 69.0,36.0 L 70.0,35.0 L 73.0,36.0 L 74.0,38.0 L 79.0,41.0 L 81.0,41.0 L 84.0,44.0 L 82.0,48.0 L 81.0,49.0 L 80.0,49.0 L 78.0,51.0 L 77.0,55.0 L 75.0,53.0 L 74.0,60.0 L 72.0,59.0 L 65.0,53.0 L 67.0,52.0 L 68.0,51.0 L 71.0,51.0 L 73.0,49.0 L 74.0,49.0 L 75.0,46.0 L 73.0,44.0 L 72.0,44.0 L 70.0,42.0 L 69.0,39.0 L 66.0,39.0 L 64.0,43.0 L 61.0,46.0 L 49.0,45.0 Z M 36.0,35.0 L 38.0,39.0 L 35.0,39.0 Z M 48.0,34.0 L 48.0,37.0 L 49.0,40.0 L 46.0,40.0 L 45.0,37.0 Z M 58.0,33.0 L 59.0,31.0 L 60.0,30.0 L 61.0,30.0 L 63.0,29.0 L 67.0,29.0 L 70.0,32.0 L 68.0,34.0 L 60.0,35.0 Z M 17.0,13.0 L 19.0,15.0 L 19.0,16.0 L 22.0,19.0 L 20.0,20.0 L 21.0,24.0 L 25.0,25.0 L 26.0,29.0 L 25.0,29.0 L 22.0,31.0 L 20.0,29.0 L 18.0,25.0 L 17.0,22.0 L 16.0,18.0 Z M 80.0,10.0 L 81.0,15.0 L 79.0,23.0 L 78.0,26.0 L 76.0,28.0 L 76.0,29.0 L 74.0,30.0 L 72.0,28.0 L 68.0,26.0 L 70.0,24.0 L 73.0,22.0 L 77.0,21.0 L 75.0,16.0 Z" />
</svg>